<?xml version="1.0" encoding="utf-8"?>
<!-- Generator: Adobe Illustrator 23.0.0, SVG Export Plug-In . SVG Version: 6.00 Build 0)  -->
<svg version="1.1" id="Capa_1" xmlns="http://www.w3.org/2000/svg" xmlns:xlink="http://www.w3.org/1999/xlink" x="0px" y="0px"
	 viewBox="0 0 323.9 595.3" style="enable-background:new 0 0 323.9 595.3;" xml:space="preserve">
<style type="text/css">
	.st0{fill:#01B1AE;}
	.st1{fill:#04605B;}
	.st2{fill:#FFFFFF;}
</style>
<g>
	<g>
		<ellipse class="st0" cx="161.9" cy="178" rx="156.2" ry="171.8"/>
	</g>
	<g>
		<path class="st0" d="M23.1,256.6c70.4,116.1,117.6,227.6,133.2,332.2c6.7-102.9,59.1-215.1,144.5-332.2L23.1,256.6L23.1,256.6z"/>
	</g>
	<g>
		<path class="st1" d="M32.1,273c0,0,67.4,69.2,95.2,149.7s29,166,29,166C137.9,481.9,96.3,376.7,32.1,273z"/>
	</g>
	<g>
		<path class="st1" d="M294.4,269c0,0-77.1,73.2-105.1,153.7s-33.2,162.1-33.2,162.1C171.1,474.3,225.4,368.5,294.4,269z"/>
	</g>
</g>
<path class="st2" d="M219.8,236.3h-9.8V114.1c0-2.8-2.2-5-5-5h-37.4V96.6c0-2.8-2.2-5-5-5h-34.6c-2.8,0-5,2.2-5,5v12.5h-4.1
	c-2.8,0-5,2.2-5,5v122.3H104c-2.7,0-5,2.1-5.1,4.8c-0.1,2.9,2.1,5.2,5,5.2h35.6c1.4,0,2.5-1.1,2.5-2.5v-28.7h-2
	c-2.7,0-5-2.1-5.1-4.7c-0.1-2.9,2.1-5.2,5-5.2c1.5,0,45.4,0,44.1,0c2.7,0,5,2.1,5.1,4.7c0.1,2.9-2.1,5.2-5,5.2h-2.2v28.7
	c0,1.4,1.1,2.5,2.5,2.5h35.6c2.8,0,5.1-2.4,5-5.2C224.8,238.4,222.5,236.3,219.8,236.3L219.8,236.3z M149.7,194.8h-5.6
	c-2.8,0-5-2.2-5-5s2.2-5,5-5h5.6c2.8,0,5,2.2,5,5S152.5,194.8,149.7,194.8z M149.7,176.1h-5.6c-2.8,0-5-2.2-5-5s2.2-5,5-5h5.6
	c2.8,0,5,2.2,5,5S152.5,176.1,149.7,176.1z M149.7,157.4h-5.6c-2.8,0-5-2.2-5-5s2.2-5,5-5h5.6c2.8,0,5,2.2,5,5
	S152.5,157.4,149.7,157.4z M149.7,138.7h-5.6c-2.8,0-5-2.2-5-5c0-2.8,2.2-5,5-5h5.6c2.8,0,5,2.2,5,5
	C154.7,136.5,152.5,138.7,149.7,138.7z M179.4,194.8h-5.6c-2.8,0-5-2.2-5-5s2.2-5,5-5h5.6c2.8,0,5,2.2,5,5S182.1,194.8,179.4,194.8z
	 M179.4,176.1h-5.6c-2.8,0-5-2.2-5-5s2.2-5,5-5h5.6c2.8,0,5,2.2,5,5S182.1,176.1,179.4,176.1z M179.4,157.4h-5.6c-2.8,0-5-2.2-5-5
	s2.2-5,5-5h5.6c2.8,0,5,2.2,5,5S182.1,157.4,179.4,157.4z M179.4,138.7h-5.6c-2.8,0-5-2.2-5-5c0-2.8,2.2-5,5-5h5.6c2.8,0,5,2.2,5,5
	C184.4,136.5,182.1,138.7,179.4,138.7z M151.9,243.8v-26.2c0-1.4,1.1-2.5,2.5-2.5h15c1.4,0,2.5,1.1,2.5,2.5v26.2
	c0,1.4-1.1,2.5-2.5,2.5h-15C153,246.3,151.9,245.2,151.9,243.8z"/>
</svg>
