<?xml version="1.0" encoding="utf-8"?>
<!-- Generator: Adobe Illustrator 18.0.0, SVG Export Plug-In . SVG Version: 6.00 Build 0)  -->
<!DOCTYPE svg PUBLIC "-//W3C//DTD SVG 1.1//EN" "http://www.w3.org/Graphics/SVG/1.1/DTD/svg11.dtd">
<svg version="1.1" id="Capa_1" xmlns="http://www.w3.org/2000/svg" xmlns:xlink="http://www.w3.org/1999/xlink" x="0px" y="0px"
	 viewBox="0 0 56.7 56.7" enable-background="new 0 0 56.7 56.7" xml:space="preserve">
<g>
	<circle fill="#FFFFFF" cx="28.3" cy="28.3" r="25.9"/>
	<g>
		<path fill="#1BA6A4" d="M17.5,30.5c-0.2-0.2-0.3-0.5-0.3-0.6s0.1-0.5,0.3-0.6l1.3-1.3c0.4-0.4,0.9-0.4,1.3,0l0.1,0.1l5.1,5.4
			c0.2,0.2,0.5,0.2,0.6,0l12.3-12.8h0.1l0,0c0.4-0.4,0.9-0.4,1.3,0l1.3,1.3c0.4,0.4,0.4,0.9,0,1.3l0,0L26.1,38.5
			c-0.2,0.2-0.4,0.3-0.6,0.3s-0.5-0.1-0.6-0.3l-7.2-7.7L17.5,30.5z"/>
	</g>
</g>
</svg>
