<?xml version="1.0" encoding="utf-8"?>
<!-- Generator: Adobe Illustrator 18.0.0, SVG Export Plug-In . SVG Version: 6.00 Build 0)  -->
<!DOCTYPE svg PUBLIC "-//W3C//DTD SVG 1.1//EN" "http://www.w3.org/Graphics/SVG/1.1/DTD/svg11.dtd">
<svg version="1.1" id="Capa_1" xmlns="http://www.w3.org/2000/svg" xmlns:xlink="http://www.w3.org/1999/xlink" x="0px" y="0px"
	 viewBox="0 0 56.7 56.7" enable-background="new 0 0 56.7 56.7" xml:space="preserve">
<g>
	<circle fill="#FFFFFF" cx="28.3" cy="28.3" r="25.9"/>
	<g>
		<g>
			<g id="Layer_2_1_">
				<g>
					<path fill="#1BA6A4" d="M30.8,36.8c-0.2,0-0.3,0.1-0.5,0.1c-0.4,0.1-0.7,0.5-0.6,0.9c0,0.2,0.2,0.4,0.3,0.5
						c0.2,0.1,0.4,0.2,0.6,0.1c0.2,0,0.4-0.1,0.6-0.1c0.4-0.1,0.7-0.5,0.6-1C31.6,36.9,31.2,36.7,30.8,36.8z"/>
					<path fill="#1BA6A4" d="M36.7,26c0.1,0.2,0.2,0.3,0.3,0.4c0.2,0.1,0.5,0.2,0.7,0.1c0.4-0.1,0.6-0.6,0.5-1
						c-0.1-0.2-0.1-0.4-0.2-0.6c-0.2-0.4-0.6-0.6-1-0.4c-0.4,0.2-0.6,0.6-0.4,1C36.6,25.7,36.6,25.9,36.7,26z"/>
					<path fill="#1BA6A4" d="M33.4,35.6c-0.1,0.1-0.3,0.2-0.4,0.3c-0.4,0.2-0.5,0.7-0.3,1.1c0.1,0.1,0.1,0.2,0.2,0.3
						c0.2,0.2,0.6,0.2,0.9,0c0.2-0.1,0.3-0.2,0.5-0.3c0.4-0.2,0.5-0.7,0.2-1.1C34.2,35.5,33.7,35.4,33.4,35.6z"/>
					<path fill="#1BA6A4" d="M38.7,28.3c0-0.4-0.4-0.8-0.8-0.8c-0.4,0-0.8,0.4-0.8,0.8c0,0.2,0,0.3,0,0.5c0,0.3,0.1,0.5,0.3,0.7
						c0.1,0.1,0.3,0.1,0.4,0.1c0.4,0,0.8-0.3,0.8-0.8C38.7,28.7,38.7,28.5,38.7,28.3z"/>
					<path fill="#1BA6A4" d="M36.5,33.5c-0.4-0.3-0.9-0.2-1.1,0.2c-0.1,0.1-0.2,0.3-0.3,0.4c-0.3,0.3-0.2,0.8,0.1,1.1c0,0,0,0,0.1,0
						c0.3,0.2,0.8,0.2,1.1-0.1c0.1-0.2,0.3-0.3,0.4-0.5C37,34.3,36.9,33.8,36.5,33.5z"/>
					<path fill="#1BA6A4" d="M37.7,30.6c-0.4-0.1-0.9,0.1-1,0.5c-0.1,0.2-0.1,0.3-0.2,0.5c-0.1,0.3,0,0.7,0.3,0.9
						c0.1,0,0.1,0.1,0.2,0.1c0.4,0.2,0.9,0,1-0.5c0.1-0.2,0.1-0.4,0.2-0.6C38.4,31.2,38.2,30.8,37.7,30.6z"/>
					<path fill="#1BA6A4" d="M27.3,36.9c-0.7-0.1-1.4-0.3-2.1-0.7c0,0,0,0,0,0c-0.2-0.1-0.3-0.1-0.5-0.2c0,0,0,0,0,0
						c-0.3-0.2-0.5-0.3-0.8-0.5c-3.8-2.7-4.7-7.9-2-11.7c0.6-0.8,1.3-1.5,2.1-2c0,0,0,0,0,0c2.7-1.9,6.5-2,9.4-0.1l-0.6,0.9
						c-0.2,0.3-0.1,0.4,0.2,0.4l2.7-0.2c0.3,0,0.5-0.3,0.4-0.6l-0.7-2.6c-0.1-0.3-0.3-0.3-0.5-0.1l-0.6,0.9c-2.1-1.4-4.7-2-7.3-1.5
						c-0.3,0-0.5,0.1-0.8,0.2c0,0,0,0,0,0c0,0,0,0,0,0c-2.2,0.6-4.1,1.8-5.5,3.7c0,0,0,0,0,0c0,0.1-0.1,0.1-0.1,0.2
						c-0.1,0.1-0.1,0.2-0.2,0.3c0,0,0,0,0,0c-1.1,1.7-1.7,3.8-1.6,5.8c0,0,0,0,0,0c0,0.2,0,0.4,0,0.6c0,0,0,0,0,0
						c0,0.2,0.1,0.4,0.1,0.6c0.4,2.1,1.3,3.9,2.8,5.4c0,0,0,0,0,0c0,0,0,0,0,0c0.4,0.4,0.8,0.7,1.3,1.1c1.2,0.8,2.5,1.4,4,1.7
						c0.4,0.1,0.9-0.2,0.9-0.6C28,37.4,27.7,37,27.3,36.9z"/>
					<path fill="#1BA6A4" d="M28.2,22.2c-0.4,0-0.6,0.3-0.6,0.6v6.5l5.9,3.1c0.1,0,0.2,0.1,0.3,0.1c0.2,0,0.5-0.1,0.6-0.4
						c0.2-0.3,0-0.7-0.3-0.9l-5.2-2.7v-5.7C28.9,22.5,28.6,22.2,28.2,22.2z"/>
				</g>
			</g>
		</g>
	</g>
</g>
</svg>
