<?xml version="1.0" encoding="utf-8"?>
<!-- Generator: Adobe Illustrator 23.0.0, SVG Export Plug-In . SVG Version: 6.00 Build 0)  -->
<svg version="1.1" id="Capa_1" xmlns="http://www.w3.org/2000/svg" xmlns:xlink="http://www.w3.org/1999/xlink" x="0px" y="0px"
	 viewBox="0 0 323.9 595.3" style="enable-background:new 0 0 323.9 595.3;" xml:space="preserve">
<style type="text/css">
	.st0{fill:#01B1AE;}
	.st1{fill:#04605B;}
	.st2{fill:#FFFFFF;}
</style>
<g>
	<g>
		<ellipse class="st0" cx="161.9" cy="178" rx="156.2" ry="171.8"/>
	</g>
	<g>
		<path class="st0" d="M23.1,256.6c70.4,116.1,117.6,227.6,133.2,332.2c6.7-102.9,59.1-215.1,144.5-332.2L23.1,256.6L23.1,256.6z"/>
	</g>
	<g>
		<path class="st1" d="M32.1,273c0,0,67.4,69.2,95.2,149.7s29,166,29,166C137.9,481.9,96.3,376.7,32.1,273z"/>
	</g>
	<g>
		<path class="st1" d="M294.4,269c0,0-77.1,73.2-105.1,153.7s-33.2,162.1-33.2,162.1C171.1,474.3,225.4,368.5,294.4,269z"/>
	</g>
</g>
<g>
	<g>
		<path class="st2" d="M144.2,191.1l-2.4,14.1c-0.3,1.9,0.5,3.9,2,5c1.6,1.1,3.7,1.3,5.4,0.4l12.7-6.6l12.7,6.6
			c0.7,0.4,1.6,0.6,2.4,0.6c1.1,0,2.1-0.3,3-1c1.6-1.1,2.4-3.1,2-5l-2.4-14.1l10.2-10c1.4-1.4,1.9-3.4,1.3-5.3
			c-0.6-1.9-2.2-3.2-4.1-3.5l-14.1-2.1l-6.4-12.8c-0.9-1.7-2.7-2.9-4.6-2.9c-1.9,0-3.7,1.1-4.6,2.9l-6.4,12.8l-14.1,2.1
			c-1.9,0.3-3.5,1.6-4.1,3.5c-0.6,1.9-0.1,3.9,1.3,5.3L144.2,191.1z"/>
		<path class="st2" d="M222.7,108h-16.2v-9c0-4.1-3.3-7.5-7.5-7.5h-1.2c-4.1,0-7.5,3.3-7.5,7.5v9h-57.1v-9c0-4.1-3.3-7.5-7.5-7.5
			h-1.2c-4.1,0-7.5,3.3-7.5,7.5v9h-16c-8.5,0-15.3,6.9-15.3,15.3v107.4c0,8.5,6.9,15.3,15.3,15.3h121.4c8.5,0,15.3-6.9,15.3-15.3
			V123.4C238,114.9,231.1,108,222.7,108z M220.7,228.8H103.2v-83.6h117.4V228.8z"/>
	</g>
</g>
</svg>
