<?xml version="1.0" encoding="utf-8"?>
<!-- Generator: Adobe Illustrator 23.0.0, SVG Export Plug-In . SVG Version: 6.00 Build 0)  -->
<svg version="1.1" id="Capa_1" xmlns="http://www.w3.org/2000/svg" xmlns:xlink="http://www.w3.org/1999/xlink" x="0px" y="0px"
	 viewBox="0 0 323.9 595.3" style="enable-background:new 0 0 323.9 595.3;" xml:space="preserve">
<style type="text/css">
	.st0{fill:#01B1AE;}
	.st1{fill:#04605B;}
	.st2{fill:#FFFFFF;}
</style>
<g>
	<g>
		<ellipse class="st0" cx="161.9" cy="178" rx="156.2" ry="171.8"/>
	</g>
	<g>
		<path class="st0" d="M23.1,256.6c70.4,116.1,117.6,227.6,133.2,332.2c6.7-102.9,59.1-215.1,144.5-332.2L23.1,256.6L23.1,256.6z"/>
	</g>
	<g>
		<path class="st1" d="M32.1,273c0,0,67.4,69.2,95.2,149.7s29,166,29,166C137.9,481.9,96.3,376.7,32.1,273z"/>
	</g>
	<g>
		<path class="st1" d="M294.4,269c0,0-77.1,73.2-105.1,153.7s-33.2,162.1-33.2,162.1C171.1,474.3,225.4,368.5,294.4,269z"/>
	</g>
</g>
<g>
	<g>
		<g>
			<path class="st2" d="M235.3,223.1l-60.6-60.6l-70.9-70.9h-5.5l-1.1,2.9c-3,7.6-4.3,15.3-3.7,22.4c0.7,8.1,3.7,15.1,8.9,20.2
				l55.3,55.3l7.3-7.3l51.1,57.2c5.1,5.1,13.8,5.4,19.2,0C240.6,237,240.6,228.4,235.3,223.1z"/>
		</g>
	</g>
	<g>
		<g>
			<path class="st2" d="M132,179.6L88.6,223c-5.3,5.3-5.3,13.9,0,19.2c5,5,13.8,5.5,19.2,0l43.3-43.3L132,179.6z"/>
		</g>
	</g>
	<g>
		<g>
			<path class="st2" d="M232.7,117.4l-24.6,24.6l-6.4-6.4l24.6-24.6l-6.4-6.4l-24.6,24.6l-6.4-6.4l24.6-24.6l-6.4-6.4L175,123.8
				c-3.9,3.9-6.3,9.1-6.6,14.7c-0.1,1.4-0.4,2.8-0.9,4.1l20.8,20.8c1.3-0.5,2.7-0.8,4.1-0.9c5.5-0.3,10.7-2.7,14.7-6.6l32.1-32.1
				L232.7,117.4z"/>
		</g>
	</g>
</g>
</svg>
