<?xml version="1.0" encoding="utf-8"?>
<!-- Generator: Adobe Illustrator 18.0.0, SVG Export Plug-In . SVG Version: 6.00 Build 0)  -->
<!DOCTYPE svg PUBLIC "-//W3C//DTD SVG 1.1//EN" "http://www.w3.org/Graphics/SVG/1.1/DTD/svg11.dtd">
<svg version="1.1" id="Capa_1" xmlns="http://www.w3.org/2000/svg" xmlns:xlink="http://www.w3.org/1999/xlink" x="0px" y="0px"
	 viewBox="0 0 56.7 56.7" enable-background="new 0 0 56.7 56.7" xml:space="preserve">
<g>
	<circle fill="#FFFFFF" cx="28.3" cy="28.3" r="25.9"/>
	<g>
		<g>
			<g>
				<path fill="#1BA6A4" d="M40,20.1c-0.1-0.1-0.2-0.2-0.4-0.2c-0.1,0-0.3,0.1-0.4,0.2c-0.1,0.1-0.2,0.2-0.2,0.4
					c0,0.1,0.1,0.3,0.2,0.4c0.1,0.1,0.2,0.2,0.4,0.2c0.1,0,0.3-0.1,0.4-0.2c0.1-0.1,0.2-0.2,0.2-0.4C40.1,20.3,40.1,20.2,40,20.1z"
					/>
			</g>
		</g>
		<g>
			<g>
				<path fill="#1BA6A4" d="M27.8,32.6c-0.1-0.1-0.2-0.2-0.4-0.2c-0.1,0-0.3,0.1-0.4,0.2c-0.1,0.1-0.2,0.2-0.2,0.4
					c0,0.1,0.1,0.3,0.2,0.4c0.1,0.1,0.2,0.2,0.4,0.2c0.1,0,0.3-0.1,0.4-0.2c0.1-0.1,0.2-0.2,0.2-0.4C27.9,32.8,27.9,32.7,27.8,32.6z
					"/>
			</g>
		</g>
		<g>
			<g>
				<path fill="#1BA6A4" d="M41.2,21.9c-0.1-0.3-0.5-0.3-0.7-0.2c-0.3,0.1-0.3,0.5-0.2,0.7c1.6,2.8,1.1,6.3-1.2,8.5l-0.4,0.4
					c-0.1-0.3-0.2-0.5-0.5-0.7l-5.4-5.4c0.4-0.2,0.7-0.4,1-0.7l1-1c0.2-0.2,0.2-0.5,0-0.7c-0.2-0.2-0.5-0.2-0.7,0l-1,1
					c-0.5,0.5-1.1,0.8-1.8,0.8h-2.1c-0.1,0-0.3,0.1-0.4,0.2l-1.6,1.6c-0.5,0.5-1.2,0.5-1.7,0c-0.5-0.5-0.5-1.2,0-1.7l3.6-3.6
					c2.2-2.2,5.7-2.7,8.5-1.2c0.3,0.1,0.6,0,0.7-0.2c0.1-0.3,0-0.6-0.2-0.7c-1.5-0.8-3.3-1.2-5-0.9c-1.6,0.2-3.1,0.9-4.3,2
					c-1.5-1.3-3.4-2-5.4-2c-2.2,0-4.2,0.8-5.8,2.4c-1.5,1.5-2.4,3.6-2.4,5.8c0,2.2,0.8,4.2,2.4,5.8l0.2,0.2c0,0,0.1,0.1,0.1,0.1
					c0,0.5,0.2,0.9,0.6,1.3c0.4,0.4,0.9,0.6,1.4,0.6c0,0,0.1,0,0.1,0c0,0,0,0.1,0,0.1c0,0.5,0.2,1,0.6,1.4c0.4,0.4,0.9,0.6,1.4,0.6
					c0,0,0.1,0,0.1,0c0,0,0,0.1,0,0.1c0,0.5,0.2,1,0.6,1.4c0.4,0.4,0.9,0.6,1.4,0.6c0,0,0.1,0,0.1,0c0,0.5,0.2,1.1,0.6,1.5
					c0.4,0.4,0.9,0.6,1.4,0.6c0.5,0,1-0.2,1.4-0.6l0.7-0.7l1,1c0.4,0.4,0.9,0.6,1.4,0.6c0.5,0,1-0.2,1.4-0.6c0.4-0.4,0.6-1,0.6-1.5
					c0,0,0.1,0,0.1,0c0.5,0,1-0.2,1.4-0.6c0.4-0.4,0.6-1,0.6-1.5c0,0,0.1,0,0.1,0c0.5,0,1-0.2,1.4-0.6c0.4-0.4,0.6-1,0.6-1.5
					c0,0,0.1,0,0.1,0c0.5,0,1-0.2,1.4-0.6c0.2-0.2,0.3-0.4,0.4-0.6c0.1,0,0.1-0.1,0.1-0.1l1-1C42.5,29.1,43.1,25,41.2,21.9z
					 M19.9,32.7c-0.3,0-0.5-0.1-0.7-0.3c-0.2-0.2-0.3-0.4-0.3-0.7c0-0.3,0.1-0.5,0.3-0.7l0.9-0.9c0.2-0.2,0.4-0.3,0.7-0.3
					c0.3,0,0.5,0.1,0.7,0.3c0.4,0.4,0.4,1,0,1.3l-0.9,0.9C20.4,32.6,20.1,32.7,19.9,32.7z M21.3,34.5c-0.2-0.2-0.3-0.4-0.3-0.7
					c0-0.3,0.1-0.5,0.3-0.7l0.9-0.9c0,0,0,0,0,0c0.2-0.2,0.4-0.3,0.7-0.3c0.3,0,0.5,0.1,0.7,0.3c0.4,0.4,0.4,1,0,1.3l-0.9,0.9
					C22.2,34.9,21.6,34.9,21.3,34.5z M23.4,36.6c-0.2-0.2-0.3-0.4-0.3-0.7c0-0.3,0.1-0.5,0.3-0.7l0.9-0.9c0,0,0,0,0,0
					c0.2-0.2,0.4-0.3,0.7-0.3s0.5,0.1,0.7,0.3c0.4,0.4,0.4,1,0,1.3l-0.9,0.9C24.3,37,23.7,37,23.4,36.6z M27.7,37.8l-0.9,0.9
					c-0.2,0.2-0.4,0.3-0.7,0.3c-0.3,0-0.5-0.1-0.7-0.3c-0.4-0.4-0.4-1,0-1.3l0.9-0.9c0,0,0,0,0,0c0.2-0.2,0.4-0.3,0.7-0.3
					c0.3,0,0.5,0.1,0.7,0.3c0.2,0.2,0.3,0.4,0.3,0.7C27.9,37.3,27.8,37.6,27.7,37.8z M37.6,32.7c-0.2,0.2-0.4,0.3-0.7,0.3
					c-0.3,0-0.5-0.1-0.7-0.3L34,30.5c0,0,0,0,0,0L32,28.4c-0.2-0.2-0.5-0.2-0.7,0c-0.2,0.2-0.2,0.5,0,0.7l4.3,4.3
					c0.4,0.4,0.4,1,0,1.3c-0.2,0.2-0.4,0.3-0.7,0.3c-0.3,0-0.5-0.1-0.7-0.3l-4.3-4.3c-0.2-0.2-0.5-0.2-0.7,0c-0.2,0.2-0.2,0.5,0,0.7
					l2.1,2.1c0,0,0,0,0,0l2.2,2.2c0.4,0.4,0.4,1,0,1.3c-0.4,0.4-1,0.4-1.3,0l-2.2-2.2c0,0-0.1-0.1-0.1-0.1l-0.6-0.6
					c-0.2-0.2-0.5-0.2-0.7,0c-0.2,0.2-0.2,0.5,0,0.7l3,3c0.4,0.4,0.4,1,0,1.3c-0.2,0.2-0.4,0.3-0.7,0.3c-0.3,0-0.5-0.1-0.7-0.3
					l-1.1-1.1c0.1-0.2,0.1-0.5,0.1-0.7c0-0.5-0.2-1-0.6-1.4c-0.4-0.4-0.9-0.6-1.4-0.6c0,0-0.1,0-0.1,0c0-0.5-0.2-1.1-0.6-1.5
					C26,33.2,25.5,33,24.9,33c0,0-0.1,0-0.1,0c0-0.5-0.2-1.1-0.6-1.5c-0.4-0.4-0.9-0.6-1.4-0.6c0,0-0.1,0-0.1,0
					c0-0.5-0.2-1.1-0.6-1.5c-0.8-0.8-2-0.8-2.8,0l-0.9,0.9c-0.1,0.1-0.2,0.2-0.3,0.4c-1.2-1.3-1.9-3-1.9-4.9c0-1.9,0.7-3.7,2.1-5
					c1.3-1.3,3.1-2.1,5-2.1c1.7,0,3.4,0.6,4.6,1.7l-3.3,3.3c-0.4,0.4-0.7,1-0.7,1.6c0,0.6,0.2,1.2,0.7,1.6c0.4,0.4,1,0.7,1.6,0.7
					c0.6,0,1.2-0.2,1.6-0.7l1.4-1.4h1.9c0.2,0,0.3,0,0.5,0l5.9,5.9C37.9,31.7,37.9,32.3,37.6,32.7z"/>
			</g>
		</g>
	</g>
</g>
</svg>
