<?xml version="1.0" encoding="utf-8"?>
<!-- Generator: Adobe Illustrator 23.0.0, SVG Export Plug-In . SVG Version: 6.00 Build 0)  -->
<svg version="1.1" id="Capa_1" xmlns="http://www.w3.org/2000/svg" xmlns:xlink="http://www.w3.org/1999/xlink" x="0px" y="0px"
	 viewBox="0 0 323.9 595.3" style="enable-background:new 0 0 323.9 595.3;" xml:space="preserve">
<style type="text/css">
	.st0{fill:#EA868F;}
	.st1{fill:#DC3545;}
	.st2{fill:#FFFFFF;}
</style>
<g>
	<g>
		<ellipse class="st0" cx="161.9" cy="178" rx="156.2" ry="171.8"/>
	</g>
	<g>
		<path class="st0" d="M23.1,256.6c70.4,116.1,117.6,227.6,133.2,332.2c6.7-102.9,59.1-215.1,144.5-332.2L23.1,256.6L23.1,256.6z"/>
	</g>
	<g>
		<path class="st1" d="M32.1,273c0,0,67.4,69.2,95.2,149.7s29,166,29,166C137.9,481.9,96.3,376.7,32.1,273z"/>
	</g>
	<g>
		<path class="st1" d="M294.4,269c0,0-77.1,73.2-105.1,153.7s-33.2,162.1-33.2,162.1C171.1,474.3,225.4,368.5,294.4,269z"/>
	</g>
</g>
<g>
	<g>
		<path class="st2" d="M161.9,91.6c-42.6,0-77.4,34.7-77.4,77.3s34.7,77.4,77.4,77.4s77.4-34.7,77.4-77.4S204.6,91.6,161.9,91.6z
			 M166.9,116.7l19.9-10.7c11,4.4,20.6,11.5,27.9,20.6l-4.7,21.9l-15.2,7.4l-27.9-20.3V116.7z M137.3,106l19.9,10.7v18.9l-27.9,20.3
			l-15.2-7.4l-4.7-22C116.7,117.4,126.3,110.3,137.3,106z M106.2,207.2c-6.3-9.2-10.4-20-11.6-31.7l16.4-17.8l14.9,7.3l11.2,31.9
			l-9.5,11.4L106.2,207.2z M179.2,234.3c-5.5,1.5-11.3,2.3-17.2,2.3c-7.2,0-14.2-1.2-20.7-3.3l-6.1-18.9l9.7-11.7h34.2l9.5,11.3
			L179.2,234.3z M196.1,208l-9.3-11.1l11.4-31.9l14.9-7.3l16.3,17.8c-1,10.1-4.2,19.5-9.1,27.8L196.1,208z"/>
	</g>
</g>
</svg>
