<?xml version="1.0" encoding="utf-8"?>
<!-- Generator: Adobe Illustrator 23.0.0, SVG Export Plug-In . SVG Version: 6.00 Build 0)  -->
<svg version="1.1" id="Capa_1" xmlns="http://www.w3.org/2000/svg" xmlns:xlink="http://www.w3.org/1999/xlink" x="0px" y="0px"
	 viewBox="0 0 323.9 595.3" style="enable-background:new 0 0 323.9 595.3;" xml:space="preserve">
<style type="text/css">
	.st0{fill:#EA868F;}
	.st1{fill:#DC3545;}
	.st2{fill:#FFFFFF;}
</style>
<g>
	<g>
		<ellipse class="st0" cx="161.9" cy="178" rx="156.2" ry="171.8"/>
	</g>
	<g>
		<path class="st0" d="M23.1,256.6c70.4,116.1,117.6,227.6,133.2,332.2c6.7-102.9,59.1-215.1,144.5-332.2L23.1,256.6L23.1,256.6z"/>
	</g>
	<g>
		<path class="st1" d="M32.1,273c0,0,67.4,69.2,95.2,149.7s29,166,29,166C137.9,481.9,96.3,376.7,32.1,273z"/>
	</g>
	<g>
		<path class="st1" d="M294.4,269c0,0-77.1,73.2-105.1,153.7s-33.2,162.1-33.2,162.1C171.1,474.3,225.4,368.5,294.4,269z"/>
	</g>
</g>
<g>
	<path class="st2" d="M176.2,131.6c0-8.7-7.1-15.8-15.8-15.8h-8.5V96.1c0-2.5-2-4.5-4.5-4.5h-34.3c-2.5,0-4.3,2.3-4.3,4.8v38.9h67.4
		L176.2,131.6L176.2,131.6z M142.9,115.9H118v-15.2h24.9V115.9z"/>
	<path class="st2" d="M84.6,230.5c0,8.4,6.6,15.2,14.8,15.7V144.4H84.6V230.5z"/>
	<path class="st2" d="M84.6,131.6v3.7h14.8v-19.4C91.2,116.4,84.6,123.3,84.6,131.6z"/>
	<path class="st2" d="M226.3,174.1h-13.7v-3.9c0-8.6-7-15.5-15.5-15.5h-20.9v-10.4h-67.4v101.9h14.5c-2.6-3.9-4.1-8.4-4.1-13v-46.1
		c0-12.2,9.9-22.1,22.1-22.1h14.6c-1.1,3.1-0.9,5.2-0.9,9.1h-13.7c-7.2,0-13,5.8-13,13v46.1c0,7.2,5.8,13,13,13h85
		c7.2,0,13-5.8,13-13v-46.1C239.3,180,233.5,174.1,226.3,174.1L226.3,174.1z M162,201.8c-7.8,5.2-8,5.6-9.8,5.6
		c-4.5,0-6.3-5.8-2.5-8.3l7.3-4.9c2.1-1.4,4.9-0.8,6.3,1.3C164.7,197.6,164.1,200.5,162,201.8L162,201.8z M164.1,170.2
		c0-3.6,2.9-6.4,6.4-6.4h26.6c3.5,0,6.4,2.9,6.4,6.4v3.9H164v-3.9H164.1z M174.1,224.5c-3.8,0-7-3.1-7-7c0-3.8,3.1-7,7-7
		c3.8,0,7,3.1,7,7C181,221.3,177.9,224.5,174.1,224.5z M195.9,207.5c-3.8,0-7-3.1-7-7c0-3.8,3.1-7,7-7c3.8,0,7,3.1,7,7
		C202.9,204.3,199.8,207.5,195.9,207.5z M212.9,226.9h-7.3c-2.5,0-4.5-2-4.5-4.5s2-4.5,4.5-4.5h7.3c2.5,0,4.5,2,4.5,4.5
		C217.5,224.9,215.4,226.9,212.9,226.9z"/>
</g>
</svg>
