<?xml version="1.0" encoding="utf-8"?>
<!-- Generator: Adobe Illustrator 18.0.0, SVG Export Plug-In . SVG Version: 6.00 Build 0)  -->
<!DOCTYPE svg PUBLIC "-//W3C//DTD SVG 1.1//EN" "http://www.w3.org/Graphics/SVG/1.1/DTD/svg11.dtd">
<svg version="1.1" id="Capa_1" xmlns="http://www.w3.org/2000/svg" xmlns:xlink="http://www.w3.org/1999/xlink" x="0px" y="0px"
	 viewBox="259 0 323.9 595.3" enable-background="new 259 0 323.9 595.3" xml:space="preserve">
<g>
	<g>
		<ellipse fill="#01B1AE" cx="420.9" cy="178" rx="156.2" ry="171.8"/>
	</g>
	<g>
		<path fill="#01B1AE" d="M282.1,256.6c70.4,116.1,117.6,227.6,133.2,332.2c6.7-102.9,59.1-215.1,144.5-332.2H282.1z"/>
	</g>
	<g>
		<path fill="#04605B" d="M291.1,273c0,0,67.4,69.2,95.2,149.7s29,166,29,166C396.9,481.9,355.3,376.7,291.1,273z"/>
	</g>
	<g>
		<path fill="#04605B" d="M553.4,269c0,0-77.1,73.2-105.1,153.7c-27.9,80.5-33.2,162.2-33.2,162.2
			C430.1,474.3,484.4,368.5,553.4,269z"/>
	</g>
	<g>
		<polygon fill="#FFFFFF" points="489.9,160.8 381.1,91.8 381.1,229.9 		"/>
	</g>
</g>
</svg>
