<?xml version="1.0" encoding="utf-8"?>
<!-- Generator: Adobe Illustrator 18.0.0, SVG Export Plug-In . SVG Version: 6.00 Build 0)  -->
<!DOCTYPE svg PUBLIC "-//W3C//DTD SVG 1.1//EN" "http://www.w3.org/Graphics/SVG/1.1/DTD/svg11.dtd">
<svg version="1.1" id="Capa_1" xmlns="http://www.w3.org/2000/svg" xmlns:xlink="http://www.w3.org/1999/xlink" x="0px" y="0px"
	 viewBox="0 0 798 708" style="enable-background:new 0 0 798 708;" xml:space="preserve">
<style type="text/css">
	.st0{fill:#01B1AE;}
	.st1{fill:#04605B;}
	.st2{fill:#FFFFFF;}
	.st3{fill:#CCCACB;}
	.st4{fill:#3F3F3F;}
</style>
<g>
	<g>
		<path class="st0" d="M110.8,614.7l-10.2-95.4h18.7l5.3,60.2l5.3-60.2h17.8l5.1,60.2l5.1-60.2h18.9l-10.4,95.4h-22.9l-4.8-46
			l-4.6,46H110.8z"/>
		<path class="st0" d="M177.5,614.7l9.2-95.4h32.3l9.1,95.4h-18.1l-1.3-15.4h-11.6l-1.1,15.4H177.5z M198.6,584h8.7l-4.2-48.5h-0.9
			L198.6,584z"/>
		<path class="st0" d="M234,614.7v-95.4h19.1v79.2h19.7v16.2H234z"/>
		<path class="st0" d="M278.1,614.7v-95.4H297v38.2l8.9-38.2h19.2l-10.7,43.7l12.9,51.8h-19.8l-10.4-46.2v46.2H278.1z"/>
		<path class="st0" d="M353.9,614.7l9.2-95.4h32.3l9.1,95.4h-18.1l-1.3-15.4h-11.6l-1.1,15.4H353.9z M375,584h8.7l-4.2-48.5h-0.9
			L375,584z"/>
		<path class="st0" d="M440.3,609.1c-3.9-4.3-5.8-11.2-5.8-20.8V579h18.8v11.9c0,4.7,1.5,7.1,4.6,7.1c1.7,0,2.9-0.5,3.6-1.5
			c0.7-1,1-2.7,1-5.1c0-3.1-0.4-5.7-1.1-7.7c-0.7-2-1.7-3.7-2.8-5.1c-1.1-1.4-3.2-3.5-6.2-6.4L444,564c-6.4-6.2-9.6-13.1-9.6-20.7
			c0-8.1,1.9-14.3,5.6-18.6c3.7-4.3,9.2-6.4,16.4-6.4c8.6,0,14.8,2.3,18.6,6.8c3.8,4.6,5.7,11.7,5.7,21.4h-19.4l-0.1-6.6
			c0-1.3-0.4-2.3-1.1-3c-0.7-0.7-1.7-1.1-2.9-1.1c-1.5,0-2.6,0.4-3.3,1.2c-0.7,0.8-1.1,1.9-1.1,3.3c0,3.1,1.8,6.3,5.3,9.7l11.1,10.7
			c2.6,2.5,4.7,4.9,6.4,7.2c1.7,2.3,3.1,4.9,4.1,8c1,3.1,1.6,6.7,1.6,10.9c0,9.4-1.7,16.5-5.2,21.4c-3.4,4.9-9.1,7.3-17.1,7.3
			C450.4,615.5,444.1,613.4,440.3,609.1z"/>
		<path class="st0" d="M495.8,614.7v-77.1h-11.3v-18.3h41.8v18.3h-11.3v77.1H495.8z"/>
		<path class="st0" d="M536.8,608.5c-4-4.7-6-11.3-6-19.8v-45.4c0-8.2,2-14.4,6-18.6c4-4.2,9.8-6.3,17.6-6.3
			c7.7,0,13.6,2.1,17.6,6.3c4,4.2,6,10.4,6,18.6v45.4c0,8.6-2,15.2-6,19.9c-4,4.7-9.9,7-17.6,7C546.6,615.5,540.8,613.2,536.8,608.5
			z M557.8,595.8c0.6-1.5,0.9-3.6,0.9-6.2v-46.7c0-2.1-0.3-3.8-0.8-5.1c-0.6-1.3-1.7-1.9-3.4-1.9c-3.2,0-4.8,2.4-4.8,7.2v46.5
			c0,2.7,0.3,4.8,1,6.2c0.7,1.4,1.9,2.1,3.7,2.1C556,598,557.2,597.3,557.8,595.8z"/>
		<path class="st0" d="M585.6,519.2h29.3c4.7,0,8.3,1.1,10.8,3.2c2.6,2.1,4.3,5.1,5.2,8.9c0.9,3.8,1.3,8.7,1.3,14.6
			c0,5.4-0.7,9.6-2.1,12.7c-1.4,3-3.9,5.1-7.3,6.3c2.9,0.6,5,2,6.3,4.3c1.3,2.3,1.9,5.4,1.9,9.3l-0.2,36.1h-18.7v-37.3
			c0-2.7-0.5-4.4-1.6-5.1c-1-0.7-2.9-1.1-5.7-1.1v43.5h-19.3V519.2z M609.6,554.6c2.7,0,4-2.9,4-8.7c0-2.5-0.1-4.4-0.3-5.7
			c-0.2-1.3-0.6-2.1-1.2-2.6c-0.6-0.5-1.4-0.7-2.6-0.7H605v17.7H609.6z"/>
		<path class="st0" d="M650.1,614.7v-31.4l-15.2-64h18.9l5.3,32.3l5.3-32.3h18.9l-15.2,64v31.4H650.1z"/>
	</g>
	<g>
		<g>
			<path class="st0" d="M100.1,502.3c-1.1-1.3-1.7-3.2-1.7-5.6c0-2.4,0.5-4.3,1.6-5.6c1.1-1.3,2.6-2,4.7-2c0.8,0,1.6,0.1,2.3,0.4
				c0.7,0.3,1.3,0.7,1.8,1.2c-0.1,0.2-0.1,0.4-0.3,0.5c-0.1,0.1-0.3,0.2-0.4,0.2c-0.2,0-0.4-0.1-0.5-0.2c-0.4-0.4-0.9-0.6-1.4-0.8
				s-1-0.2-1.6-0.2c-1.6,0-2.9,0.6-3.7,1.7c-0.9,1.1-1.3,2.7-1.3,4.8c0,2,0.4,3.6,1.3,4.8c0.9,1.1,2.1,1.7,3.7,1.7
				c0.8,0,1.4-0.1,2-0.3c0.5-0.2,1-0.5,1.5-1c0.2,0,0.3,0.1,0.4,0.2c0.1,0.1,0.1,0.2,0.1,0.4c0,0.3-0.2,0.6-0.6,0.9
				c-0.4,0.3-0.9,0.5-1.5,0.7c-0.6,0.2-1.2,0.3-1.9,0.3C102.8,504.3,101.2,503.7,100.1,502.3z"/>
		</g>
		<g>
			<path class="st0" d="M112,502.8c-0.8-1-1.2-2.5-1.2-4.5c0-4,1.6-6,4.9-6c3.3,0,4.9,2,4.9,6c0,2-0.4,3.5-1.2,4.5
				c-0.8,1-2.1,1.5-3.7,1.5C114,504.3,112.8,503.8,112,502.8z M118.5,502.1c0.6-0.8,0.9-2.1,0.9-3.8c0-1.7-0.3-3-0.9-3.8
				c-0.6-0.8-1.6-1.2-2.8-1.2c-1.3,0-2.2,0.4-2.8,1.2s-0.9,2.1-0.9,3.8c0,1.7,0.3,3,0.9,3.8c0.6,0.8,1.6,1.2,2.8,1.2
				C116.9,503.3,117.9,502.9,118.5,502.1z"/>
		</g>
		<g>
			<path class="st0" d="M123.7,487.5h1.2v16.6h-1.2V487.5z"/>
		</g>
		<g>
			<path class="st0" d="M129.3,487.5h1.2v16.6h-1.2V487.5z"/>
		</g>
		<g>
			<path class="st0" d="M143.6,498.5H135c0,1.5,0.4,2.7,1.1,3.5c0.7,0.9,1.6,1.3,2.8,1.3c0.8,0,1.4-0.1,2-0.4c0.5-0.3,1-0.8,1.4-1.4
				c0.2-0.2,0.3-0.4,0.5-0.4c0.2,0,0.4,0.1,0.7,0.3c-0.4,0.9-0.9,1.7-1.7,2.2c-0.8,0.5-1.8,0.8-2.9,0.8c-1,0-1.9-0.2-2.7-0.7
				c-0.8-0.5-1.3-1.2-1.8-2.1c-0.4-0.9-0.6-2-0.6-3.2c0-1.9,0.5-3.3,1.4-4.4c0.9-1.1,2.2-1.6,3.8-1.6c1.5,0,2.7,0.5,3.5,1.4
				c0.8,0.9,1.3,2.2,1.3,3.9C143.7,497.9,143.7,498.2,143.6,498.5z M142.5,497.5c0-1.4-0.3-2.4-0.9-3.1c-0.6-0.7-1.5-1.1-2.7-1.1
				c-1.1,0-2,0.4-2.7,1.1c-0.7,0.7-1.1,1.8-1.2,3.1H142.5z"/>
		</g>
		<g>
			<path class="st0" d="M147.8,503.6c-0.8-0.5-1.4-1.2-1.8-2.1c-0.4-0.9-0.6-2-0.6-3.2c0-1.2,0.2-2.2,0.7-3.1
				c0.4-0.9,1.1-1.6,1.8-2.1c0.8-0.5,1.7-0.7,2.8-0.7c1.3,0,2.3,0.3,3.1,1c0.8,0.7,1.3,1.5,1.4,2.6c-0.1,0.1-0.2,0.1-0.4,0.1
				c-0.2,0-0.3,0.1-0.4,0.1c-0.1,0-0.2,0-0.3-0.1c-0.1-0.1-0.1-0.2-0.2-0.5c-0.2-0.7-0.5-1.3-1.1-1.7c-0.6-0.4-1.3-0.6-2.2-0.6
				c-0.8,0-1.5,0.2-2.2,0.6s-1.1,1-1.5,1.7c-0.3,0.8-0.5,1.6-0.5,2.6c0,1,0.2,1.9,0.5,2.7c0.3,0.8,0.8,1.4,1.4,1.8
				c0.6,0.4,1.3,0.6,2.2,0.6c0.9,0,1.7-0.2,2.4-0.6c0.7-0.4,1.1-1,1.5-1.8c0.2,0,0.3,0.1,0.4,0.2s0.2,0.3,0.2,0.5
				c0,0.5-0.2,0.9-0.6,1.3c-0.4,0.4-1,0.8-1.7,1c-0.7,0.3-1.4,0.4-2.1,0.4C149.5,504.3,148.6,504.1,147.8,503.6z"/>
		</g>
		<g>
			<path class="st0" d="M163.5,503.5c0,0.2-0.1,0.4-0.3,0.5c-0.4,0.2-1.1,0.3-1.8,0.3c-0.9,0-1.6-0.3-2.1-0.8
				c-0.5-0.5-0.8-1.2-0.8-2.1v-8h-2.2v-0.9h2.2v-3.2h1.2v3.2h3.3v0.9h-3.3v7.7c0,0.7,0.2,1.2,0.5,1.6c0.3,0.4,0.7,0.5,1.3,0.5
				c0.6,0,1.2-0.1,1.8-0.4C163.4,503,163.5,503.2,163.5,503.5z"/>
		</g>
		<g>
			<path class="st0" d="M166.3,490c-0.1-0.1-0.2-0.3-0.2-0.6v-0.2c0-0.3,0.1-0.4,0.2-0.6s0.3-0.2,0.6-0.2h0.1c0.5,0,0.8,0.3,0.8,0.8
				v0.2c0,0.3-0.1,0.4-0.2,0.6c-0.1,0.1-0.3,0.2-0.6,0.2h-0.1C166.6,490.3,166.5,490.2,166.3,490z M166.4,492.5h1.2v11.6h-1.2V492.5
				z"/>
		</g>
		<g>
			<path class="st0" d="M181,503.1c0,0.3,0.1,0.6,0.3,0.8c-0.1,0.1-0.2,0.1-0.4,0.2c-0.1,0-0.3,0.1-0.4,0.1c-0.2,0-0.4-0.2-0.5-0.5
				c-0.1-0.3-0.1-0.9-0.1-1.7v-5.7c0-1-0.2-1.8-0.6-2.3c-0.4-0.5-1.1-0.7-2-0.7c-0.7,0-1.4,0.2-2.1,0.5c-0.7,0.3-1.4,0.8-2,1.4v8.9
				h-1.2v-8.2c0-1.1,0-1.8-0.1-2.3c0-0.5-0.1-0.8-0.2-0.9c0.3-0.2,0.6-0.3,0.9-0.3c0.2,0,0.3,0.1,0.4,0.3c0.1,0.2,0.1,0.5,0.1,1v0.2
				c1.3-1.1,2.8-1.7,4.3-1.7c1.2,0,2.1,0.3,2.7,1s0.9,1.6,0.9,3v5.3C180.9,502.3,180.9,502.8,181,503.1z"/>
		</g>
		<g>
			<path class="st0" d="M194.5,492.1c0.1,0.1,0.2,0.3,0.2,0.6c0,0.1,0,0.2,0,0.3c-1.1,0-1.9,0.2-2.3,0.6c0.7,0.7,1,1.6,1,2.7
				c0,2.7-1.5,4-4.6,4c-1.1,0-1.8,0.1-2.3,0.2c-0.5,0.1-0.7,0.4-0.7,0.7c0,0.4,0.3,0.7,0.8,0.8c0.5,0.1,1.4,0.2,2.7,0.2
				c1.7,0,2.9,0.2,3.8,0.7c0.9,0.5,1.3,1.2,1.3,2.1c0,1.1-0.4,1.9-1.3,2.5c-0.9,0.5-2.2,0.8-4.1,0.8c-1.6,0-2.9-0.3-3.7-0.8
				c-0.9-0.5-1.3-1.3-1.3-2.2c0-0.6,0.2-1.1,0.6-1.6c0.4-0.4,0.9-0.7,1.6-0.9v-0.1c-0.4-0.1-0.8-0.3-1-0.6c-0.2-0.3-0.4-0.6-0.4-1
				c0-0.4,0.1-0.7,0.4-1c0.3-0.3,0.7-0.4,1.2-0.5c-0.6-0.3-1.1-0.8-1.5-1.3c-0.4-0.6-0.5-1.2-0.5-1.9c0-2.7,1.6-4.1,4.8-4.1
				c1,0,1.8,0.2,2.5,0.7c0.4-0.3,0.8-0.6,1.2-0.8c0.4-0.2,0.8-0.3,1.2-0.3C194.2,491.9,194.4,492,194.5,492.1z M192.1,503.7
				c-0.6-0.3-1.7-0.5-3.2-0.5c-1.3,0-2.3,0.2-3,0.5c-0.6,0.3-0.9,0.8-0.9,1.5c0,0.7,0.3,1.3,0.9,1.6s1.6,0.5,2.9,0.5
				c1.5,0,2.5-0.2,3.2-0.5c0.7-0.3,1-0.9,1-1.7C193.1,504.5,192.8,504,192.1,503.7z M191.3,498.5c0.5-0.5,0.8-1.2,0.8-2.3
				c0-1-0.3-1.8-0.8-2.3c-0.5-0.5-1.4-0.7-2.5-0.7c-2.2,0-3.3,1-3.3,3c0,1,0.3,1.7,0.9,2.2c0.6,0.5,1.4,0.8,2.4,0.8
				C190,499.2,190.8,499,191.3,498.5z"/>
		</g>
		<g>
			<path class="st0" d="M203.8,503.6c-0.8-0.5-1.4-1.2-1.8-2.1c-0.4-0.9-0.6-2-0.6-3.2c0-1.2,0.2-2.2,0.7-3.1
				c0.4-0.9,1.1-1.6,1.8-2.1c0.8-0.5,1.7-0.7,2.8-0.7c1.3,0,2.3,0.3,3.1,1c0.8,0.7,1.3,1.5,1.4,2.6c-0.1,0.1-0.2,0.1-0.4,0.1
				c-0.2,0-0.3,0.1-0.4,0.1c-0.1,0-0.2,0-0.3-0.1c-0.1-0.1-0.1-0.2-0.2-0.5c-0.2-0.7-0.5-1.3-1.1-1.7c-0.6-0.4-1.3-0.6-2.2-0.6
				c-0.8,0-1.5,0.2-2.2,0.6s-1.1,1-1.5,1.7c-0.3,0.8-0.5,1.6-0.5,2.6c0,1,0.2,1.9,0.5,2.7c0.3,0.8,0.8,1.4,1.4,1.8
				c0.6,0.4,1.3,0.6,2.2,0.6c0.9,0,1.7-0.2,2.4-0.6c0.7-0.4,1.1-1,1.5-1.8c0.2,0,0.3,0.1,0.4,0.2c0.1,0.1,0.2,0.3,0.2,0.5
				c0,0.5-0.2,0.9-0.6,1.3c-0.4,0.4-1,0.8-1.7,1c-0.7,0.3-1.4,0.4-2.1,0.4C205.6,504.3,204.6,504.1,203.8,503.6z"/>
		</g>
		<g>
			<path class="st0" d="M223.3,504c-0.2,0.2-0.5,0.3-0.7,0.3c-0.3,0-0.4-0.1-0.5-0.4c-0.1-0.3-0.2-0.7-0.2-1.4
				c-0.4,0.6-1,1.1-1.7,1.4c-0.7,0.4-1.5,0.5-2.4,0.5c-1.2,0-2.2-0.3-2.8-1c-0.6-0.7-0.9-1.7-0.9-3v-7.8h1.2v7.7
				c0,1,0.2,1.8,0.7,2.3c0.5,0.5,1.2,0.8,2,0.8c0.8,0,1.5-0.2,2.2-0.6c0.7-0.4,1.3-1,1.7-1.7v-8.5h1.2v9.2
				C222.9,502.5,223,503.3,223.3,504z"/>
		</g>
		<g>
			<path class="st0" d="M227.1,487.5h1.2v16.6h-1.2V487.5z"/>
		</g>
		<g>
			<path class="st0" d="M238,503.5c0,0.2-0.1,0.4-0.3,0.5c-0.4,0.2-1.1,0.3-1.8,0.3c-0.9,0-1.6-0.3-2.1-0.8
				c-0.5-0.5-0.8-1.2-0.8-2.1v-8h-2.2v-0.9h2.2v-3.2h1.2v3.2h3.3v0.9h-3.3v7.7c0,0.7,0.2,1.2,0.5,1.6c0.3,0.4,0.7,0.5,1.3,0.5
				c0.6,0,1.2-0.1,1.8-0.4C237.9,503,238,503.2,238,503.5z"/>
		</g>
		<g>
			<path class="st0" d="M249.6,504c-0.2,0.2-0.5,0.3-0.7,0.3c-0.3,0-0.4-0.1-0.5-0.4c-0.1-0.3-0.2-0.7-0.2-1.4
				c-0.4,0.6-1,1.1-1.7,1.4c-0.7,0.4-1.5,0.5-2.4,0.5c-1.2,0-2.2-0.3-2.8-1c-0.6-0.7-0.9-1.7-0.9-3v-7.8h1.2v7.7
				c0,1,0.2,1.8,0.7,2.3c0.5,0.5,1.2,0.8,2,0.8c0.8,0,1.5-0.2,2.2-0.6c0.7-0.4,1.3-1,1.7-1.7v-8.5h1.2v9.2
				C249.3,502.5,249.4,503.3,249.6,504z"/>
		</g>
		<g>
			<path class="st0" d="M258.8,492.6c0.3,0.1,0.4,0.4,0.4,0.6c0,0.2-0.1,0.4-0.2,0.5c-0.3-0.2-0.8-0.3-1.4-0.3
				c-0.6,0-1.2,0.2-1.7,0.5c-0.5,0.4-0.9,0.9-1.2,1.5c-0.3,0.6-0.4,1.4-0.4,2.2v6.4H253v-11.6h1.2v2.2c0.4-0.7,0.8-1.2,1.5-1.7
				c0.6-0.4,1.3-0.7,2-0.7C258.1,492.4,258.5,492.5,258.8,492.6z"/>
		</g>
		<g>
			<path class="st0" d="M269.8,502.8c0.1,0.4,0.3,0.7,0.6,0.9c-0.1,0.1-0.2,0.2-0.3,0.3c-0.2,0.1-0.3,0.1-0.4,0.1
				c-0.3,0-0.5-0.2-0.7-0.6s-0.3-0.9-0.3-1.5c-0.5,0.7-1.1,1.2-1.9,1.6c-0.8,0.4-1.6,0.6-2.5,0.6c-1,0-1.8-0.3-2.5-0.9
				c-0.6-0.6-1-1.3-1-2.2c0-1.3,0.7-2.3,2-3.1c1.3-0.7,3.3-1.2,5.8-1.3v-0.7c0-2-1-3-3-3c-0.7,0-1.3,0.1-1.9,0.4
				c-0.6,0.3-1.2,0.7-1.8,1.3c-0.1,0.1-0.2,0.1-0.3,0.1c-0.1,0-0.3,0-0.4-0.1c-0.1-0.1-0.3-0.2-0.4-0.4c0.6-0.7,1.3-1.2,2.2-1.6
				c0.8-0.4,1.7-0.6,2.7-0.6c1.3,0,2.3,0.3,3,1c0.7,0.7,1.1,1.7,1.1,2.9v5.1C269.7,502,269.7,502.5,269.8,502.8z M266.6,502.7
				c0.7-0.5,1.4-1.1,1.9-1.9v-2.8c-2.2,0.1-3.9,0.4-5,1c-1.1,0.5-1.6,1.3-1.6,2.4c0,0.7,0.2,1.2,0.6,1.5c0.4,0.4,1,0.6,1.7,0.6
				C265,503.3,265.8,503.1,266.6,502.7z"/>
		</g>
		<g>
			<path class="st0" d="M273.6,487.5h1.2v16.6h-1.2V487.5z"/>
		</g>
		<g>
			<path class="st0" d="M292.7,493.4c0.7,0.7,1.1,1.6,1.1,2.8v7.9h-1.2v-7.8c0-1-0.3-1.7-0.8-2.2s-1.2-0.8-2.2-0.8
				c-0.7,0-1.4,0.1-2.1,0.4c-0.7,0.3-1.4,0.7-2,1.1v9.2h-1.2v-16.6h1.2v6.3c1.4-1,2.8-1.4,4.3-1.4C291,492.3,292,492.7,292.7,493.4z
				"/>
		</g>
		<g>
			<path class="st0" d="M306.6,498.5h-8.7c0,1.5,0.4,2.7,1.1,3.5c0.7,0.9,1.6,1.3,2.8,1.3c0.8,0,1.4-0.1,2-0.4
				c0.5-0.3,1-0.8,1.4-1.4c0.2-0.2,0.3-0.4,0.5-0.4c0.2,0,0.4,0.1,0.7,0.3c-0.4,0.9-0.9,1.7-1.7,2.2c-0.8,0.5-1.8,0.8-2.9,0.8
				c-1,0-1.9-0.2-2.7-0.7c-0.8-0.5-1.3-1.2-1.8-2.1c-0.4-0.9-0.6-2-0.6-3.2c0-1.9,0.5-3.3,1.4-4.4c0.9-1.1,2.2-1.6,3.8-1.6
				c1.5,0,2.7,0.5,3.5,1.4c0.8,0.9,1.3,2.2,1.3,3.9C306.6,497.9,306.6,498.2,306.6,498.5z M305.5,497.5c0-1.4-0.3-2.4-0.9-3.1
				c-0.6-0.7-1.5-1.1-2.7-1.1c-1.1,0-2,0.4-2.7,1.1c-0.7,0.7-1.1,1.8-1.2,3.1H305.5z"/>
		</g>
		<g>
			<path class="st0" d="M315,492.6c0.3,0.1,0.4,0.4,0.4,0.6c0,0.2-0.1,0.4-0.2,0.5c-0.3-0.2-0.8-0.3-1.4-0.3c-0.6,0-1.2,0.2-1.7,0.5
				c-0.5,0.4-0.9,0.9-1.2,1.5c-0.3,0.6-0.4,1.4-0.4,2.2v6.4h-1.2v-11.6h1.2v2.2c0.4-0.7,0.8-1.2,1.5-1.7c0.6-0.4,1.3-0.7,2-0.7
				C314.4,492.4,314.7,492.5,315,492.6z"/>
		</g>
		<g>
			<path class="st0" d="M318.3,490c-0.1-0.1-0.2-0.3-0.2-0.6v-0.2c0-0.3,0.1-0.4,0.2-0.6c0.1-0.1,0.3-0.2,0.6-0.2h0.1
				c0.5,0,0.8,0.3,0.8,0.8v0.2c0,0.3-0.1,0.4-0.2,0.6c-0.1,0.1-0.3,0.2-0.6,0.2h-0.1C318.6,490.3,318.4,490.2,318.3,490z
				 M318.3,492.5h1.2v11.6h-1.2V492.5z"/>
		</g>
		<g>
			<path class="st0" d="M329.4,503.5c0,0.2-0.1,0.4-0.3,0.5c-0.4,0.2-1.1,0.3-1.8,0.3c-0.9,0-1.6-0.3-2.1-0.8
				c-0.5-0.5-0.8-1.2-0.8-2.1v-8h-2.2v-0.9h2.2v-3.2h1.2v3.2h3.3v0.9h-3.3v7.7c0,0.7,0.2,1.2,0.5,1.6c0.3,0.4,0.7,0.5,1.3,0.5
				c0.6,0,1.2-0.1,1.8-0.4C329.3,503,329.4,503.2,329.4,503.5z"/>
		</g>
		<g>
			<path class="st0" d="M340,502.8c0.1,0.4,0.3,0.7,0.6,0.9c-0.1,0.1-0.2,0.2-0.3,0.3c-0.2,0.1-0.3,0.1-0.4,0.1
				c-0.3,0-0.5-0.2-0.7-0.6s-0.3-0.9-0.3-1.5c-0.5,0.7-1.1,1.2-1.9,1.6c-0.8,0.4-1.6,0.6-2.5,0.6c-1,0-1.8-0.3-2.5-0.9
				c-0.6-0.6-1-1.3-1-2.2c0-1.3,0.7-2.3,2-3.1c1.3-0.7,3.3-1.2,5.8-1.3v-0.7c0-2-1-3-3-3c-0.7,0-1.3,0.1-1.9,0.4
				c-0.6,0.3-1.2,0.7-1.8,1.3c-0.1,0.1-0.2,0.1-0.3,0.1c-0.1,0-0.3,0-0.4-0.1c-0.1-0.1-0.3-0.2-0.4-0.4c0.6-0.7,1.3-1.2,2.2-1.6
				c0.8-0.4,1.7-0.6,2.7-0.6c1.3,0,2.3,0.3,3,1c0.7,0.7,1.1,1.7,1.1,2.9v5.1C339.8,502,339.9,502.5,340,502.8z M336.7,502.7
				c0.7-0.5,1.4-1.1,1.9-1.9v-2.8c-2.2,0.1-3.9,0.4-5,1c-1.1,0.5-1.6,1.3-1.6,2.4c0,0.7,0.2,1.2,0.6,1.5c0.4,0.4,1,0.6,1.7,0.6
				C335.2,503.3,336,503.1,336.7,502.7z"/>
		</g>
		<g>
			<path class="st0" d="M353.2,492.1c0.1,0.1,0.2,0.3,0.2,0.6c0,0.1,0,0.2,0,0.3c-1.1,0-1.9,0.2-2.3,0.6c0.7,0.7,1,1.6,1,2.7
				c0,2.7-1.5,4-4.6,4c-1.1,0-1.8,0.1-2.3,0.2c-0.5,0.1-0.7,0.4-0.7,0.7c0,0.4,0.3,0.7,0.8,0.8c0.5,0.1,1.4,0.2,2.7,0.2
				c1.7,0,2.9,0.2,3.8,0.7c0.9,0.5,1.3,1.2,1.3,2.1c0,1.1-0.4,1.9-1.3,2.5c-0.9,0.5-2.2,0.8-4.1,0.8c-1.6,0-2.9-0.3-3.7-0.8
				c-0.9-0.5-1.3-1.3-1.3-2.2c0-0.6,0.2-1.1,0.6-1.6c0.4-0.4,0.9-0.7,1.6-0.9v-0.1c-0.4-0.1-0.8-0.3-1-0.6c-0.2-0.3-0.4-0.6-0.4-1
				c0-0.4,0.1-0.7,0.4-1c0.3-0.3,0.7-0.4,1.2-0.5c-0.6-0.3-1.1-0.8-1.5-1.3c-0.4-0.6-0.5-1.2-0.5-1.9c0-2.7,1.6-4.1,4.8-4.1
				c1,0,1.8,0.2,2.5,0.7c0.4-0.3,0.8-0.6,1.2-0.8c0.4-0.2,0.8-0.3,1.2-0.3C352.9,491.9,353.1,492,353.2,492.1z M350.9,503.7
				c-0.6-0.3-1.7-0.5-3.2-0.5c-1.3,0-2.3,0.2-3,0.5c-0.6,0.3-0.9,0.8-0.9,1.5c0,0.7,0.3,1.3,0.9,1.6s1.6,0.5,2.9,0.5
				c1.5,0,2.5-0.2,3.2-0.5c0.7-0.3,1-0.9,1-1.7C351.8,504.5,351.5,504,350.9,503.7z M350.1,498.5c0.5-0.5,0.8-1.2,0.8-2.3
				c0-1-0.3-1.8-0.8-2.3c-0.5-0.5-1.4-0.7-2.5-0.7c-2.2,0-3.3,1-3.3,3c0,1,0.3,1.7,0.9,2.2c0.6,0.5,1.4,0.8,2.4,0.8
				C348.7,499.2,349.5,499,350.1,498.5z"/>
		</g>
		<g>
			<path class="st0" d="M364.7,498.5h-8.7c0,1.5,0.4,2.7,1.1,3.5c0.7,0.9,1.6,1.3,2.8,1.3c0.8,0,1.4-0.1,2-0.4
				c0.5-0.3,1-0.8,1.4-1.4c0.2-0.2,0.3-0.4,0.5-0.4c0.2,0,0.4,0.1,0.7,0.3c-0.4,0.9-0.9,1.7-1.7,2.2c-0.8,0.5-1.8,0.8-2.9,0.8
				c-1,0-1.9-0.2-2.7-0.7c-0.8-0.5-1.3-1.2-1.8-2.1c-0.4-0.9-0.6-2-0.6-3.2c0-1.9,0.5-3.3,1.4-4.4c0.9-1.1,2.2-1.6,3.8-1.6
				c1.5,0,2.7,0.5,3.5,1.4c0.8,0.9,1.3,2.2,1.3,3.9C364.8,497.9,364.8,498.2,364.7,498.5z M363.6,497.5c0-1.4-0.3-2.4-0.9-3.1
				c-0.6-0.7-1.5-1.1-2.7-1.1c-1.1,0-2,0.4-2.7,1.1c-0.7,0.7-1.1,1.8-1.2,3.1H363.6z"/>
		</g>
		<g>
			<path class="st0" d="M378.5,503.5c0,0.2-0.1,0.4-0.3,0.5c-0.4,0.2-1.1,0.3-1.8,0.3c-0.9,0-1.6-0.3-2.1-0.8
				c-0.5-0.5-0.8-1.2-0.8-2.1v-8h-2.2v-0.9h2.2v-3.2h1.2v3.2h3.3v0.9h-3.3v7.7c0,0.7,0.2,1.2,0.5,1.6c0.3,0.4,0.7,0.5,1.3,0.5
				c0.6,0,1.2-0.1,1.8-0.4C378.4,503,378.5,503.2,378.5,503.5z"/>
		</g>
		<g>
			<path class="st0" d="M389.2,493.4c0.7,0.7,1.1,1.6,1.1,2.8v7.9h-1.2v-7.8c0-1-0.3-1.7-0.8-2.2c-0.5-0.5-1.2-0.8-2.2-0.8
				c-0.7,0-1.4,0.1-2.1,0.4c-0.7,0.3-1.4,0.7-2,1.1v9.2h-1.2v-16.6h1.2v6.3c1.4-1,2.8-1.4,4.3-1.4
				C387.5,492.3,388.4,492.7,389.2,493.4z"/>
		</g>
		<g>
			<path class="st0" d="M399.7,492.6c0.3,0.1,0.4,0.4,0.4,0.6c0,0.2-0.1,0.4-0.2,0.5c-0.3-0.2-0.8-0.3-1.4-0.3
				c-0.6,0-1.2,0.2-1.7,0.5c-0.5,0.4-0.9,0.9-1.2,1.5s-0.4,1.4-0.4,2.2v6.4h-1.2v-11.6h1.2v2.2c0.4-0.7,0.8-1.2,1.5-1.7
				c0.6-0.4,1.3-0.7,2-0.7C399,492.4,399.4,492.5,399.7,492.6z"/>
		</g>
		<g>
			<path class="st0" d="M402.6,502.8c-0.8-1-1.2-2.5-1.2-4.5c0-4,1.6-6,4.9-6c3.3,0,4.9,2,4.9,6c0,2-0.4,3.5-1.2,4.5
				c-0.8,1-2.1,1.5-3.7,1.5S403.5,503.8,402.6,502.8z M409.1,502.1c0.6-0.8,0.9-2.1,0.9-3.8c0-1.7-0.3-3-0.9-3.8
				c-0.6-0.8-1.6-1.2-2.8-1.2c-1.3,0-2.2,0.4-2.8,1.2c-0.6,0.8-0.9,2.1-0.9,3.8c0,1.7,0.3,3,0.9,3.8c0.6,0.8,1.6,1.2,2.8,1.2
				C407.6,503.3,408.5,502.9,409.1,502.1z"/>
		</g>
		<g>
			<path class="st0" d="M423.3,504c-0.2,0.2-0.5,0.3-0.7,0.3c-0.3,0-0.4-0.1-0.5-0.4c-0.1-0.3-0.2-0.7-0.2-1.4
				c-0.4,0.6-1,1.1-1.7,1.4c-0.7,0.4-1.5,0.5-2.4,0.5c-1.2,0-2.2-0.3-2.8-1c-0.6-0.7-0.9-1.7-0.9-3v-7.8h1.2v7.7
				c0,1,0.2,1.8,0.7,2.3c0.5,0.5,1.2,0.8,2.1,0.8c0.8,0,1.5-0.2,2.2-0.6c0.7-0.4,1.3-1,1.7-1.7v-8.5h1.2v9.2
				C423,502.5,423.1,503.3,423.3,504z"/>
		</g>
		<g>
			<path class="st0" d="M436.6,492.1c0.1,0.1,0.2,0.3,0.2,0.6c0,0.1,0,0.2,0,0.3c-1.1,0-1.9,0.2-2.3,0.6c0.7,0.7,1,1.6,1,2.7
				c0,2.7-1.5,4-4.6,4c-1.1,0-1.8,0.1-2.3,0.2c-0.5,0.1-0.7,0.4-0.7,0.7c0,0.4,0.3,0.7,0.8,0.8c0.5,0.1,1.4,0.2,2.7,0.2
				c1.7,0,2.9,0.2,3.8,0.7c0.9,0.5,1.3,1.2,1.3,2.1c0,1.1-0.4,1.9-1.3,2.5c-0.9,0.5-2.2,0.8-4.1,0.8c-1.6,0-2.9-0.3-3.7-0.8
				c-0.9-0.5-1.3-1.3-1.3-2.2c0-0.6,0.2-1.1,0.6-1.6c0.4-0.4,0.9-0.7,1.6-0.9v-0.1c-0.4-0.1-0.8-0.3-1-0.6c-0.2-0.3-0.4-0.6-0.4-1
				c0-0.4,0.1-0.7,0.4-1c0.3-0.3,0.7-0.4,1.2-0.5c-0.6-0.3-1.1-0.8-1.5-1.3c-0.4-0.6-0.5-1.2-0.5-1.9c0-2.7,1.6-4.1,4.8-4.1
				c1,0,1.8,0.2,2.5,0.7c0.4-0.3,0.8-0.6,1.2-0.8s0.8-0.3,1.2-0.3C436.3,491.9,436.5,492,436.6,492.1z M434.2,503.7
				c-0.6-0.3-1.7-0.5-3.2-0.5c-1.3,0-2.3,0.2-3,0.5c-0.6,0.3-0.9,0.8-0.9,1.5c0,0.7,0.3,1.3,0.9,1.6c0.6,0.4,1.6,0.5,2.9,0.5
				c1.5,0,2.5-0.2,3.2-0.5c0.7-0.3,1-0.9,1-1.7C435.2,504.5,434.9,504,434.2,503.7z M433.4,498.5c0.5-0.5,0.8-1.2,0.8-2.3
				c0-1-0.3-1.8-0.8-2.3c-0.5-0.5-1.4-0.7-2.5-0.7c-2.2,0-3.3,1-3.3,3c0,1,0.3,1.7,0.9,2.2c0.6,0.5,1.4,0.8,2.4,0.8
				C432,499.2,432.9,499,433.4,498.5z"/>
		</g>
		<g>
			<path class="st0" d="M447.5,493.4c0.7,0.7,1.1,1.6,1.1,2.8v7.9h-1.2v-7.8c0-1-0.3-1.7-0.8-2.2c-0.5-0.5-1.2-0.8-2.2-0.8
				c-0.7,0-1.4,0.1-2.1,0.4c-0.8,0.3-1.4,0.7-2,1.1v9.2h-1.2v-16.6h1.2v6.3c1.4-1,2.8-1.4,4.3-1.4
				C445.8,492.3,446.7,492.7,447.5,493.4z"/>
		</g>
		<g>
			<path class="st0" d="M458.3,490c-0.1-0.1-0.2-0.3-0.2-0.6v-0.2c0-0.3,0.1-0.4,0.2-0.6c0.1-0.1,0.3-0.2,0.6-0.2h0.1
				c0.5,0,0.8,0.3,0.8,0.8v0.2c0,0.3-0.1,0.4-0.2,0.6c-0.1,0.1-0.3,0.2-0.6,0.2h-0.1C458.6,490.3,458.4,490.2,458.3,490z
				 M458.3,492.5h1.2v11.6h-1.2V492.5z"/>
		</g>
		<g>
			<path class="st0" d="M472.9,503.1c0,0.3,0.1,0.6,0.3,0.8c-0.1,0.1-0.2,0.1-0.4,0.2c-0.1,0-0.3,0.1-0.4,0.1
				c-0.2,0-0.4-0.2-0.5-0.5c-0.1-0.3-0.1-0.9-0.1-1.7v-5.7c0-1-0.2-1.8-0.6-2.3c-0.4-0.5-1.1-0.7-2-0.7c-0.7,0-1.4,0.2-2.1,0.5
				c-0.7,0.3-1.4,0.8-2,1.4v8.9h-1.2v-8.2c0-1.1,0-1.8-0.1-2.3c0-0.5-0.1-0.8-0.2-0.9c0.3-0.2,0.6-0.3,0.9-0.3
				c0.2,0,0.3,0.1,0.4,0.3c0.1,0.2,0.1,0.5,0.1,1v0.2c1.3-1.1,2.8-1.7,4.3-1.7c1.2,0,2.1,0.3,2.7,1s0.9,1.6,0.9,3v5.3
				C472.9,502.3,472.9,502.8,472.9,503.1z"/>
		</g>
		<g>
			<path class="st0" d="M482.3,503.5c0,0.2-0.1,0.4-0.3,0.5c-0.4,0.2-1.1,0.3-1.8,0.3c-0.9,0-1.6-0.3-2.1-0.8
				c-0.5-0.5-0.8-1.2-0.8-2.1v-8H475v-0.9h2.2v-3.2h1.2v3.2h3.3v0.9h-3.3v7.7c0,0.7,0.2,1.2,0.5,1.6c0.3,0.4,0.8,0.5,1.3,0.5
				c0.6,0,1.2-0.1,1.8-0.4C482.2,503,482.3,503.2,482.3,503.5z"/>
		</g>
		<g>
			<path class="st0" d="M493.5,498.5h-8.7c0,1.5,0.4,2.7,1.1,3.5c0.7,0.9,1.6,1.3,2.8,1.3c0.8,0,1.4-0.1,2-0.4
				c0.5-0.3,1-0.8,1.4-1.4c0.2-0.2,0.3-0.4,0.5-0.4c0.2,0,0.4,0.1,0.7,0.3c-0.4,0.9-0.9,1.7-1.7,2.2c-0.8,0.5-1.8,0.8-2.9,0.8
				c-1,0-1.9-0.2-2.7-0.7c-0.8-0.5-1.3-1.2-1.8-2.1c-0.4-0.9-0.6-2-0.6-3.2c0-1.9,0.5-3.3,1.4-4.4c0.9-1.1,2.2-1.6,3.8-1.6
				c1.5,0,2.7,0.5,3.5,1.4c0.8,0.9,1.3,2.2,1.3,3.9C493.6,497.9,493.5,498.2,493.5,498.5z M492.4,497.5c0-1.4-0.3-2.4-0.9-3.1
				c-0.6-0.7-1.5-1.1-2.7-1.1c-1.1,0-2,0.4-2.7,1.1c-0.7,0.7-1.1,1.8-1.2,3.1H492.4z"/>
		</g>
		<g>
			<path class="st0" d="M501.9,492.6c0.3,0.1,0.4,0.4,0.4,0.6c0,0.2-0.1,0.4-0.2,0.5c-0.3-0.2-0.8-0.3-1.4-0.3
				c-0.6,0-1.2,0.2-1.7,0.5c-0.5,0.4-0.9,0.9-1.2,1.5c-0.3,0.6-0.4,1.4-0.4,2.2v6.4h-1.2v-11.6h1.2v2.2c0.4-0.7,0.8-1.2,1.5-1.7
				c0.6-0.4,1.3-0.7,2-0.7C501.3,492.4,501.7,492.5,501.9,492.6z"/>
		</g>
		<g>
			<path class="st0" d="M514.5,492.1c0.1,0.1,0.2,0.3,0.2,0.6c0,0.1,0,0.2,0,0.3c-1.1,0-1.9,0.2-2.3,0.6c0.7,0.7,1,1.6,1,2.7
				c0,2.7-1.5,4-4.6,4c-1.1,0-1.8,0.1-2.3,0.2c-0.5,0.1-0.7,0.4-0.7,0.7c0,0.4,0.3,0.7,0.8,0.8c0.5,0.1,1.4,0.2,2.7,0.2
				c1.7,0,2.9,0.2,3.8,0.7c0.9,0.5,1.3,1.2,1.3,2.1c0,1.1-0.4,1.9-1.3,2.5c-0.9,0.5-2.2,0.8-4.1,0.8c-1.6,0-2.9-0.3-3.7-0.8
				c-0.9-0.5-1.3-1.3-1.3-2.2c0-0.6,0.2-1.1,0.6-1.6c0.4-0.4,0.9-0.7,1.6-0.9v-0.1c-0.4-0.1-0.8-0.3-1-0.6c-0.2-0.3-0.4-0.6-0.4-1
				c0-0.4,0.1-0.7,0.4-1c0.3-0.3,0.7-0.4,1.2-0.5c-0.6-0.3-1.1-0.8-1.5-1.3c-0.4-0.6-0.5-1.2-0.5-1.9c0-2.7,1.6-4.1,4.8-4.1
				c1,0,1.8,0.2,2.5,0.7c0.4-0.3,0.8-0.6,1.2-0.8c0.4-0.2,0.8-0.3,1.2-0.3C514.2,491.9,514.4,492,514.5,492.1z M512.1,503.7
				c-0.6-0.3-1.7-0.5-3.2-0.5c-1.3,0-2.3,0.2-3,0.5c-0.6,0.3-0.9,0.8-0.9,1.5c0,0.7,0.3,1.3,0.9,1.6c0.6,0.4,1.6,0.5,2.9,0.5
				c1.5,0,2.5-0.2,3.2-0.5c0.7-0.3,1-0.9,1-1.7C513.1,504.5,512.8,504,512.1,503.7z M511.3,498.5c0.5-0.5,0.8-1.2,0.8-2.3
				c0-1-0.3-1.8-0.8-2.3c-0.5-0.5-1.4-0.7-2.5-0.7c-2.2,0-3.3,1-3.3,3c0,1,0.3,1.7,0.9,2.2c0.6,0.5,1.4,0.8,2.4,0.8
				C510,499.2,510.8,499,511.3,498.5z"/>
		</g>
		<g>
			<path class="st0" d="M526,498.5h-8.7c0,1.5,0.4,2.7,1.1,3.5c0.7,0.9,1.6,1.3,2.8,1.3c0.8,0,1.4-0.1,2-0.4c0.5-0.3,1-0.8,1.4-1.4
				c0.2-0.2,0.3-0.4,0.5-0.4c0.2,0,0.4,0.1,0.7,0.3c-0.4,0.9-0.9,1.7-1.7,2.2c-0.8,0.5-1.8,0.8-2.9,0.8c-1,0-1.9-0.2-2.7-0.7
				c-0.8-0.5-1.3-1.2-1.8-2.1c-0.4-0.9-0.6-2-0.6-3.2c0-1.9,0.5-3.3,1.4-4.4c0.9-1.1,2.2-1.6,3.8-1.6c1.5,0,2.7,0.5,3.5,1.4
				c0.8,0.9,1.3,2.2,1.3,3.9C526,497.9,526,498.2,526,498.5z M524.9,497.5c0-1.4-0.3-2.4-0.9-3.1c-0.6-0.7-1.5-1.1-2.7-1.1
				c-1.1,0-2,0.4-2.7,1.1c-0.7,0.7-1.1,1.8-1.2,3.1H524.9z"/>
		</g>
		<g>
			<path class="st0" d="M537.9,503.1c0,0.3,0.1,0.6,0.3,0.8c-0.1,0.1-0.2,0.1-0.4,0.2c-0.1,0-0.3,0.1-0.4,0.1
				c-0.2,0-0.4-0.2-0.5-0.5c-0.1-0.3-0.1-0.9-0.1-1.7v-5.7c0-1-0.2-1.8-0.6-2.3c-0.4-0.5-1.1-0.7-2-0.7c-0.7,0-1.4,0.2-2.1,0.5
				c-0.7,0.3-1.4,0.8-2,1.4v8.9h-1.2v-8.2c0-1.1,0-1.8-0.1-2.3c0-0.5-0.1-0.8-0.2-0.9c0.3-0.2,0.6-0.3,0.9-0.3
				c0.2,0,0.3,0.1,0.4,0.3c0.1,0.2,0.1,0.5,0.1,1v0.2c1.3-1.1,2.8-1.7,4.3-1.7c1.2,0,2.1,0.3,2.7,1s0.9,1.6,0.9,3v5.3
				C537.8,502.3,537.8,502.8,537.9,503.1z"/>
		</g>
		<g>
			<path class="st0" d="M550.6,498.5h-8.7c0,1.5,0.4,2.7,1.1,3.5c0.7,0.9,1.6,1.3,2.8,1.3c0.8,0,1.4-0.1,2-0.4
				c0.5-0.3,1-0.8,1.4-1.4c0.2-0.2,0.3-0.4,0.5-0.4c0.2,0,0.4,0.1,0.7,0.3c-0.4,0.9-0.9,1.7-1.7,2.2c-0.8,0.5-1.8,0.8-2.9,0.8
				c-1,0-1.9-0.2-2.7-0.7c-0.8-0.5-1.3-1.2-1.8-2.1c-0.4-0.9-0.6-2-0.6-3.2c0-1.9,0.5-3.3,1.4-4.4s2.2-1.6,3.8-1.6
				c1.5,0,2.7,0.5,3.5,1.4c0.8,0.9,1.3,2.2,1.3,3.9C550.6,497.9,550.6,498.2,550.6,498.5z M549.5,497.5c0-1.4-0.3-2.4-0.9-3.1
				c-0.6-0.7-1.5-1.1-2.7-1.1c-1.1,0-2,0.4-2.7,1.1c-0.7,0.7-1.1,1.8-1.2,3.1H549.5z"/>
		</g>
		<g>
			<path class="st0" d="M559,492.6c0.3,0.1,0.4,0.4,0.4,0.6c0,0.2-0.1,0.4-0.2,0.5c-0.3-0.2-0.8-0.3-1.4-0.3c-0.6,0-1.2,0.2-1.7,0.5
				c-0.5,0.4-0.9,0.9-1.2,1.5s-0.4,1.4-0.4,2.2v6.4h-1.2v-11.6h1.2v2.2c0.4-0.7,0.8-1.2,1.5-1.7c0.6-0.4,1.3-0.7,2-0.7
				C558.4,492.4,558.7,492.5,559,492.6z"/>
		</g>
		<g>
			<path class="st0" d="M570.1,502.8c0.1,0.4,0.3,0.7,0.6,0.9c-0.1,0.1-0.2,0.2-0.3,0.3c-0.2,0.1-0.3,0.1-0.4,0.1
				c-0.3,0-0.5-0.2-0.7-0.6c-0.2-0.4-0.3-0.9-0.3-1.5c-0.5,0.7-1.1,1.2-1.9,1.6c-0.8,0.4-1.6,0.6-2.5,0.6c-1,0-1.8-0.3-2.5-0.9
				c-0.6-0.6-1-1.3-1-2.2c0-1.3,0.7-2.3,2-3.1c1.3-0.7,3.3-1.2,5.8-1.3v-0.7c0-2-1-3-3-3c-0.7,0-1.3,0.1-1.9,0.4
				c-0.6,0.3-1.2,0.7-1.8,1.3c-0.1,0.1-0.2,0.1-0.3,0.1s-0.3,0-0.4-0.1c-0.1-0.1-0.3-0.2-0.4-0.4c0.6-0.7,1.3-1.2,2.2-1.6
				c0.8-0.4,1.7-0.6,2.7-0.6c1.3,0,2.3,0.3,3,1c0.7,0.7,1.1,1.7,1.1,2.9v5.1C569.9,502,569.9,502.5,570.1,502.8z M566.8,502.7
				c0.7-0.5,1.4-1.1,1.9-1.9v-2.8c-2.2,0.1-3.9,0.4-5,1c-1.1,0.5-1.6,1.3-1.6,2.4c0,0.7,0.2,1.2,0.6,1.5c0.4,0.4,1,0.6,1.7,0.6
				C565.3,503.3,566.1,503.1,566.8,502.7z"/>
		</g>
		<g>
			<path class="st0" d="M579.1,503.5c0,0.2-0.1,0.4-0.3,0.5c-0.4,0.2-1.1,0.3-1.8,0.3c-0.9,0-1.6-0.3-2.1-0.8
				c-0.5-0.5-0.8-1.2-0.8-2.1v-8h-2.2v-0.9h2.2v-3.2h1.2v3.2h3.3v0.9h-3.3v7.7c0,0.7,0.2,1.2,0.5,1.6c0.3,0.4,0.8,0.5,1.3,0.5
				c0.6,0,1.2-0.1,1.8-0.4C579,503,579.1,503.2,579.1,503.5z"/>
		</g>
		<g>
			<path class="st0" d="M581.9,490c-0.1-0.1-0.2-0.3-0.2-0.6v-0.2c0-0.3,0.1-0.4,0.2-0.6c0.1-0.1,0.3-0.2,0.6-0.2h0.1
				c0.5,0,0.8,0.3,0.8,0.8v0.2c0,0.3-0.1,0.4-0.2,0.6c-0.1,0.1-0.3,0.2-0.6,0.2h-0.1C582.2,490.3,582,490.2,581.9,490z M581.9,492.5
				h1.2v11.6h-1.2V492.5z"/>
		</g>
		<g>
			<path class="st0" d="M587.6,502.8c-0.8-1-1.2-2.5-1.2-4.5c0-4,1.6-6,4.9-6c3.3,0,4.9,2,4.9,6c0,2-0.4,3.5-1.2,4.5
				c-0.8,1-2.1,1.5-3.7,1.5C589.7,504.3,588.5,503.8,587.6,502.8z M594.1,502.1c0.6-0.8,0.9-2.1,0.9-3.8c0-1.7-0.3-3-0.9-3.8
				c-0.6-0.8-1.6-1.2-2.8-1.2c-1.3,0-2.2,0.4-2.8,1.2s-0.9,2.1-0.9,3.8c0,1.7,0.3,3,0.9,3.8c0.6,0.8,1.6,1.2,2.8,1.2
				C592.6,503.3,593.5,502.9,594.1,502.1z"/>
		</g>
		<g>
			<path class="st0" d="M608.1,503.1c0,0.3,0.1,0.6,0.3,0.8c-0.1,0.1-0.2,0.1-0.4,0.2c-0.1,0-0.3,0.1-0.4,0.1
				c-0.2,0-0.4-0.2-0.5-0.5c-0.1-0.3-0.1-0.9-0.1-1.7v-5.7c0-1-0.2-1.8-0.6-2.3c-0.4-0.5-1.1-0.7-2-0.7c-0.7,0-1.4,0.2-2.1,0.5
				c-0.7,0.3-1.4,0.8-2,1.4v8.9H599v-8.2c0-1.1,0-1.8-0.1-2.3c0-0.5-0.1-0.8-0.2-0.9c0.3-0.2,0.6-0.3,0.9-0.3c0.2,0,0.3,0.1,0.4,0.3
				c0.1,0.2,0.1,0.5,0.1,1v0.2c1.3-1.1,2.8-1.7,4.3-1.7c1.2,0,2.1,0.3,2.7,1s0.9,1.6,0.9,3v5.3C608,502.3,608,502.8,608.1,503.1z"/>
		</g>
		<g>
			<path class="st0" d="M620.1,502.8c0.1,0.4,0.3,0.7,0.6,0.9c-0.1,0.1-0.2,0.2-0.3,0.3c-0.2,0.1-0.3,0.1-0.4,0.1
				c-0.3,0-0.5-0.2-0.7-0.6c-0.2-0.4-0.3-0.9-0.3-1.5c-0.5,0.7-1.1,1.2-1.9,1.6c-0.8,0.4-1.6,0.6-2.5,0.6c-1,0-1.8-0.3-2.5-0.9
				c-0.6-0.6-1-1.3-1-2.2c0-1.3,0.7-2.3,2-3.1c1.3-0.7,3.3-1.2,5.8-1.3v-0.7c0-2-1-3-3-3c-0.7,0-1.3,0.1-1.9,0.4
				c-0.6,0.3-1.2,0.7-1.8,1.3c-0.1,0.1-0.2,0.1-0.3,0.1s-0.3,0-0.4-0.1c-0.1-0.1-0.3-0.2-0.4-0.4c0.6-0.7,1.3-1.2,2.2-1.6
				c0.8-0.4,1.7-0.6,2.7-0.6c1.3,0,2.3,0.3,3,1c0.7,0.7,1.1,1.7,1.1,2.9v5.1C619.9,502,620,502.5,620.1,502.8z M616.8,502.7
				c0.7-0.5,1.4-1.1,1.9-1.9v-2.8c-2.2,0.1-3.9,0.4-5,1c-1.1,0.5-1.6,1.3-1.6,2.4c0,0.7,0.2,1.2,0.6,1.5c0.4,0.4,1,0.6,1.7,0.6
				C615.3,503.3,616.1,503.1,616.8,502.7z"/>
		</g>
		<g>
			<path class="st0" d="M623.9,487.5h1.2v16.6h-1.2V487.5z"/>
		</g>
		<g>
			<path class="st0" d="M647.9,492.5c-0.6,4.1-1.7,8-3.4,11.6h-1c-0.7-1.6-1.3-3.1-1.8-4.5c-0.5-1.4-0.8-2.9-1.1-4.4
				c-0.3,1.5-0.6,2.9-1.1,4.4c-0.5,1.4-1,2.9-1.8,4.5h-1c-0.8-1.8-1.5-3.6-2.1-5.4s-1-3.9-1.3-6.1h1.2c0.2,1.8,0.6,3.6,1,5.2
				c0.4,1.6,1,3.2,1.8,4.8c1.3-2.9,2.2-6.2,2.8-10h1.1c0.6,3.9,1.5,7.2,2.9,10c1.4-3.3,2.3-6.6,2.6-10H647.9z"/>
		</g>
		<g>
			<path class="st0" d="M658.9,502.8c0.1,0.4,0.3,0.7,0.6,0.9c-0.1,0.1-0.2,0.2-0.3,0.3c-0.2,0.1-0.3,0.1-0.4,0.1
				c-0.3,0-0.5-0.2-0.7-0.6c-0.2-0.4-0.3-0.9-0.3-1.5c-0.5,0.7-1.1,1.2-1.9,1.6c-0.8,0.4-1.6,0.6-2.5,0.6c-1,0-1.8-0.3-2.5-0.9
				c-0.6-0.6-1-1.3-1-2.2c0-1.3,0.7-2.3,2-3.1c1.3-0.7,3.3-1.2,5.8-1.3v-0.7c0-2-1-3-3-3c-0.7,0-1.3,0.1-1.9,0.4
				c-0.6,0.3-1.2,0.7-1.8,1.3c-0.1,0.1-0.2,0.1-0.3,0.1c-0.1,0-0.3,0-0.4-0.1c-0.1-0.1-0.3-0.2-0.4-0.4c0.6-0.7,1.3-1.2,2.2-1.6
				c0.8-0.4,1.7-0.6,2.7-0.6c1.3,0,2.3,0.3,3,1c0.7,0.7,1.1,1.7,1.1,2.9v5.1C658.7,502,658.7,502.5,658.9,502.8z M655.6,502.7
				c0.7-0.5,1.4-1.1,1.9-1.9v-2.8c-2.2,0.1-3.9,0.4-5,1c-1.1,0.5-1.6,1.3-1.6,2.4c0,0.7,0.2,1.2,0.6,1.5c0.4,0.4,1,0.6,1.7,0.6
				C654.1,503.3,654.9,503.1,655.6,502.7z"/>
		</g>
		<g>
			<path class="st0" d="M662.7,487.5h1.2v16.6h-1.2V487.5z"/>
		</g>
		<g>
			<path class="st0" d="M677.2,504.1c-0.1,0-0.3,0-0.5,0c-0.2,0-0.4,0-0.5,0c-0.2,0-0.4-0.1-0.5-0.3l-2.7-4.3
				c-0.3-0.4-0.6-0.7-1-0.9c-0.4-0.2-0.9-0.2-1.6-0.2l-1.2,0.1v5.6H668v-16.6h1.2v10l1.1,0c0.4,0,0.7-0.1,0.9-0.2
				c0.2-0.1,0.5-0.3,0.7-0.6l3.2-4.1h1.4l-3.7,4.6c-0.1,0.1-0.2,0.2-0.3,0.4c-0.1,0.1-0.2,0.2-0.4,0.3c0.8,0.2,1.4,0.6,1.8,1.2
				L677.2,504.1z"/>
		</g>
		<g>
			<path class="st0" d="M680.6,504c-0.7-0.2-1.2-0.5-1.6-0.9c-0.4-0.4-0.6-0.7-0.6-1.1c0-0.2,0.1-0.3,0.2-0.4
				c0.1-0.1,0.2-0.2,0.4-0.2c0.4,0.7,0.9,1.2,1.5,1.5c0.6,0.3,1.3,0.5,2.3,0.5c0.9,0,1.7-0.2,2.2-0.6c0.5-0.4,0.8-1,0.8-1.7
				c0-0.5-0.1-0.9-0.4-1.2c-0.3-0.3-0.6-0.5-1.1-0.7c-0.4-0.2-1-0.3-1.7-0.5c-0.8-0.2-1.5-0.4-2-0.6c-0.5-0.2-0.9-0.5-1.3-0.9
				c-0.4-0.4-0.5-1-0.5-1.6c0-0.7,0.2-1.3,0.6-1.8s0.9-0.8,1.5-1c0.6-0.2,1.2-0.3,1.9-0.3c0.9,0,1.7,0.2,2.4,0.6
				c0.7,0.4,1.2,0.9,1.7,1.6c-0.2,0.2-0.3,0.3-0.4,0.3s-0.2,0.1-0.3,0.1c-0.2,0-0.3-0.1-0.5-0.3c-0.4-0.4-0.8-0.8-1.2-1
				c-0.4-0.2-1-0.3-1.7-0.3c-0.8,0-1.4,0.2-2,0.5c-0.5,0.4-0.8,0.9-0.8,1.6c0,0.4,0.1,0.8,0.4,1.1c0.3,0.3,0.6,0.5,1,0.7
				c0.4,0.2,1,0.3,1.7,0.5c0.9,0.2,1.5,0.4,2.1,0.7c0.5,0.2,1,0.5,1.3,1c0.4,0.4,0.5,1,0.5,1.7c0,1-0.4,1.8-1.1,2.4
				c-0.8,0.6-1.8,0.9-3.1,0.9C682,504.3,681.3,504.2,680.6,504z"/>
		</g>
	</g>
	<g>
		<circle class="st0" cx="395.4" cy="183.8" r="107.3"/>
	</g>
	<g>
		<path class="st0" d="M300,232.9c48.4,72.5,80.8,142.2,91.5,207.5c4.6-64.3,40.6-134.4,99.3-207.5H300z"/>
	</g>
	<g>
		<g>
			<path class="st0" d="M100.2,325.3c0,49.7,40.3,89.9,89.9,89.9s89.9-40.3,89.9-89.9c0-20.5-6.9-39.5-18.5-54.6
				c-16.4-21.5-42.3-35.4-71.5-35.4C140.5,235.4,100.2,275.6,100.2,325.3z"/>
		</g>
		<g>
			<path class="st0" d="M356.1,449.3c-18.2-70.1-68.5-162.5-115.6-198.4l-31.3,162.4C275.6,390.6,320.1,410.8,356.1,449.3z"/>
		</g>
	</g>
	<g>
		<path class="st1" d="M211.4,412.7c0,0,49.8-26.7,90-12.2c40.3,14.4,54.7,48.8,54.7,48.8s-22.3-26.1-63-37.7
			C249.9,399.2,211.4,412.7,211.4,412.7z"/>
	</g>
	<g>
		<path class="st1" d="M306.2,243.1c0,0,46.3,43.2,65.4,93.5s19.9,103.7,19.9,103.7C378.9,373.6,350.3,307.9,306.2,243.1z"/>
	</g>
	<g>
		<path class="st1" d="M486.4,240.6c0,0-53,45.7-72.2,96c-19.2,50.3-22.8,101.3-22.8,101.3C401.7,368.9,439,302.8,486.4,240.6z"/>
	</g>
	<g>
		<polygon class="st1" points="442.8,173 368,129.9 368,216.2 		"/>
	</g>
	<g>
		<path class="st0" d="M573.6,110c-24.5,0-44.3,19.8-44.3,44.3s19.8,44.3,44.3,44.3c10.1,0,19.4-3.4,26.9-9.1
			c10.6-8.1,17.4-20.9,17.4-35.2C618,129.8,598.1,110,573.6,110z"/>
	</g>
	<g>
		<path class="st0" d="M513.1,236.1c36.9-10.1,85.6-38.8,97.2-57l-80-15.4C538.5,194.4,531.6,218.1,513.1,236.1z"/>
	</g>
	<g>
		<path class="st0" d="M221.9,110c24.5,0,44.3,19.8,44.3,44.3s-19.8,44.3-44.3,44.3c-10.1,0-19.4-3.4-26.9-9.1
			c-10.6-8.1-17.4-20.9-17.4-35.2C177.6,129.8,197.5,110,221.9,110z"/>
	</g>
	<g>
		<path class="st0" d="M282.5,236.1c-34.8-9.6-84.9-38.6-97.2-57l80-15.4C257.1,194.4,264,218.1,282.5,236.1z"/>
	</g>
	<g>
		<path class="st1" d="M265.3,163.5c0,0-12.9,24.6-5.8,44.5c7.1,19.8,22.9,28.1,22.9,28.1c0.3-0.1-13.1-10.9-18.5-31.1
			C258.4,183.9,265.7,163.6,265.3,163.5z"/>
	</g>
	<g>
		<path class="st1" d="M530.3,163.5c0,0,12.9,24.6,5.8,44.5c-7.1,19.8-22.9,28.1-22.9,28.1c-0.3-0.1,13.1-10.9,18.5-31.1
			C537.3,183.9,529.9,163.6,530.3,163.5z"/>
	</g>
	<g>
		<g>
			<path class="st0" d="M685.9,325.3c0,49.7-40.3,89.9-89.9,89.9S506,375,506,325.3c0-20.5,6.9-39.5,18.5-54.6
				c16.4-21.5,42.3-35.4,71.5-35.4C645.6,235.4,685.9,275.6,685.9,325.3z"/>
		</g>
		<g>
			<path class="st0" d="M430,449.3c18.2-70.1,68.5-162.5,115.6-198.4l31.3,162.4C510.5,390.6,466,410.8,430,449.3z"/>
		</g>
	</g>
	<g>
		<path class="st1" d="M574.7,412.7c0,0-49.8-26.7-90-12.2c-40.3,14.4-54.7,48.8-54.7,48.8s22.3-26.1,63-37.7
			C536.2,399.2,574.7,412.7,574.7,412.7z"/>
	</g>
</g>
</svg>
