<?xml version="1.0" encoding="utf-8"?>
<!-- Generator: Adobe Illustrator 18.0.0, SVG Export Plug-In . SVG Version: 6.00 Build 0)  -->
<!DOCTYPE svg PUBLIC "-//W3C//DTD SVG 1.1//EN" "http://www.w3.org/Graphics/SVG/1.1/DTD/svg11.dtd">
<svg version="1.1" id="Capa_1" xmlns="http://www.w3.org/2000/svg" xmlns:xlink="http://www.w3.org/1999/xlink" x="0px" y="0px"
	 viewBox="629.9 0 323.9 595.3" enable-background="new 629.9 0 323.9 595.3" xml:space="preserve">
<g>
	<g>
		<ellipse fill="#01B1AE" cx="791.8" cy="178" rx="156.2" ry="171.8"/>
	</g>
	<g>
		<path fill="#01B1AE" d="M653,256.6c70.4,116.1,117.6,227.6,133.2,332.2c6.7-102.9,59.1-215.1,144.5-332.2H653z"/>
	</g>
	<g>
		<path fill="#04605B" d="M662,273c0,0,67.4,69.2,95.2,149.7s29,166,29,166C767.8,481.9,726.2,376.7,662,273z"/>
	</g>
	<g>
		<path fill="#04605B" d="M924.3,269c0,0-77.1,73.2-105.1,153.7C791.2,503.2,786,584.8,786,584.8C801,474.3,855.3,368.5,924.3,269z"
			/>
	</g>
</g>
<path fill="#FFFFFF" d="M759,234.5c-1.3,5.1,1.8,10.2,6.9,11.5c0.8,0.2,1.5,0.3,2.3,0.3c4.2,0,8.1-2.9,9.2-7.2l7.5-29.8l-15.6-15.6
	L759,234.5L759,234.5z M763.4,176.6l12.2-47c0.6-2.5-0.9-5-3.5-5.6c-13-3.1-26.1,4.5-29.3,16.9l-7.5,29c-0.6,2.5,0.9,5,3.5,5.6
	l18.8,4.5C760.1,180.6,762.8,179.1,763.4,176.6z M843.8,142.3h-4.7c-2.6,0-4.7,2.1-4.7,4.7v4.7h-10.3l-13.8-13.8
	c-3.3-3.3-7.6-5.1-12.3-5.1c-8,0-14.9,5.4-16.9,13.2l-8,31.8c-0.8,3.2,0.1,6.6,2.5,9l25.6,25.6v24.5c0,5.2,4.2,9.5,9.5,9.5
	c5.2,0,9.5-4.2,9.5-9.5v-24.5c0-5-2-9.8-5.5-13.4l-13.8-13.8c0-0.1,0.1-0.3,0.2-0.4l5.9-23.5l6.6,6.6c1.8,1.8,4.2,2.8,6.7,2.8h14.2
	v70.9c0,2.6,2.1,4.7,4.7,4.7h4.7c2.6,0,4.7-2.1,4.7-4.7V147C848.6,144.4,846.4,142.3,843.8,142.3z M806,123.4
	c7.8,0,14.2-6.3,14.2-14.2S813.8,95,806,95s-14.2,6.3-14.2,14.2S798.2,123.4,806,123.4z"/>
</svg>
